<?xml version="1.0" standalone="no"?>
<!DOCTYPE svg PUBLIC "-//W3C//DTD SVG 1.1//EN" "http://www.w3.org/Graphics/SVG/1.1/DTD/svg11.dtd" >
<svg xmlns="http://www.w3.org/2000/svg">
<metadata>Generated by IcoMoon</metadata>
<defs>
<font id="TDSS" horiz-adv-x="1024">
<font-face units-per-em="1024" ascent="960" descent="-64" />
<missing-glyph horiz-adv-x="1024" />
<glyph unicode="&#x20;" horiz-adv-x="512" d="" />
<glyph unicode="&#xe900;" glyph-name="address" d="M200.533 695.467h42.667v-128l204.8 174.933 128-110.933 8.533 8.533c4.267 4.267 12.8 12.8 17.067 17.067l8.533 8.533-149.333 128c-8.533 8.533-21.333 8.533-29.867 0l-140.8-123.733v46.933c0 12.8-12.8 25.6-25.6 25.6h-85.333c-12.8 0-25.6-8.533-25.6-25.6v-166.4l-98.133-85.333c-4.267-4.267-8.533-8.533-8.533-17.067 0-4.267 0-12.8 4.267-17.067 8.533-8.533 25.6-8.533 34.133-4.267l115.2 106.667v162.133zM712.533 243.2l-12.8 4.267v-102.4h-153.6v149.333c0 12.8-12.8 25.6-25.6 25.6h-140.8c-12.8 0-25.6-8.533-25.6-25.6v-149.333h-153.6v268.8l247.467 217.6 85.333-72.533 4.267 12.8c4.267 8.533 8.533 17.067 12.8 21.333l4.267 8.533-89.6 76.8c-8.533 8.533-21.333 8.533-34.133 0l-273.067-238.933c-4.267-4.267-8.533-12.8-8.533-17.067v-302.933c0-12.8 12.8-25.6 25.6-21.333h226.133v170.667h93.867v-170.667h226.133c12.8 0 25.6 8.533 25.6 21.333v119.467h-8.533l-25.6 4.267zM972.8 268.8l-64 72.533 4.267 4.267c34.133 38.4 55.467 89.6 51.2 140.8-4.267 106.667-93.867 187.733-196.267 183.467h-8.533c-106.667 0-192-89.6-192-196.267s89.6-192 196.267-192h12.8c34.133 0 68.267 12.8 98.133 29.867l64-76.8c8.533-8.533 25.6-12.8 34.133-4.267 8.533 17.067 8.533 29.867 0 38.4v0 0zM917.333 482.133c0-38.4-12.8-76.8-38.4-106.667-55.467-59.733-153.6-64-213.333-8.533-25.6 25.6-42.667 59.733-46.933 98.133s12.8 76.8 38.4 106.667c25.6 29.867 64 46.933 102.4 46.933h8.533c76.8 4.267 140.8-55.467 149.333-136.533 0 0 0 0 0 0zM721.067 576c-42.667-17.067-64-59.733-64-102.4 0-12.8 12.8-21.333 25.6-21.333v0c12.8 0 21.333 12.8 21.333 25.6 0 25.6 12.8 46.933 38.4 55.467 4.267 4.267 8.533 8.533 12.8 12.8s4.267 12.8 0 17.067c-8.533 12.8-21.333 17.067-34.133 12.8v0zM682.667 460.8v0z" />
<glyph unicode="&#xe901;" glyph-name="admin_search" d="M213.333 477.867c-12.8 0-25.6 8.533-25.6 25.6 0 8.533 0 21.333 0 29.867 0 85.333 38.4 166.4 102.4 221.867 12.8 8.533 29.867 4.267 38.4-8.533s8.533-29.867-4.267-38.4c-59.733-51.2-93.867-128-85.333-204.8 4.267-12.8-8.533-25.6-25.6-25.6v0 0zM580.267 477.867h-170.667c-55.467 0-102.4-46.933-106.667-102.4v-72.533c17.067-12.8 34.133-21.333 51.2-29.867v102.4c0 29.867 21.333 51.2 51.2 51.2h166.4c29.867 0 51.2-25.6 51.2-51.2v-76.8c17.067 12.8 38.4 29.867 51.2 46.933v25.6c8.533 59.733-38.4 106.667-93.867 106.667v0 0zM917.333 153.6l-128 157.867c119.467 174.933 76.8 413.867-98.133 537.6s-418.133 76.8-537.6-102.4-76.8-413.867 98.133-537.6c106.667-72.533 247.467-89.6 366.933-38.4l128-157.867c38.4-46.933 102.4-51.2 149.333-17.067l4.267 4.267c42.667 42.667 51.2 106.667 17.067 153.6v0 0zM136.533 533.333c0 183.467 149.333 332.8 337.067 332.8 183.467 0 332.8-149.333 332.8-337.067s-149.333-332.8-337.067-332.8c0 0 0 0 0 0-183.467 0-332.8 153.6-332.8 337.067zM887.467 81.067c0-12.8-8.533-25.6-17.067-34.133l-4.267-4.267c-8.533-4.267-17.067-8.533-25.6-12.8-17.067 0-34.133 4.267-42.667 17.067l-119.467 149.333c29.867 17.067 59.733 42.667 85.333 68.267l119.467-149.333c0-4.267 4.267-17.067 4.267-34.133v0 0zM494.933 772.267c-68.267 0-123.733-55.467-123.733-123.733s55.467-123.733 123.733-123.733c68.267 0 123.733 55.467 123.733 123.733v0c0 68.267-55.467 123.733-123.733 123.733v0 0zM494.933 576c-38.4 0-72.533 29.867-72.533 72.533 0 38.4 29.867 72.533 72.533 72.533 38.4 0 72.533-29.867 72.533-72.533v0c0-42.667-34.133-72.533-72.533-72.533 0 0 0 0 0 0v0z" />
<glyph unicode="&#xe902;" glyph-name="arrow_left" d="M268.8 460.8l456.533 448c0 4.267 8.533 8.533 12.8 8.533s12.8-4.267 17.067-8.533c8.533-8.533 8.533-25.6 0-34.133l-426.667-422.4c-4.267-4.267-4.267-12.8 0-17.067 0 0 0 0 0 0l426.667-418.133c8.533-8.533 8.533-25.6 0-34.133-4.267-4.267-8.533-8.533-17.067-8.533v0c-4.267 0-12.8 4.267-17.067 8.533l-452.267 448c-4.267 4.267-8.533 8.533-8.533 17.067 0 4.267 4.267 8.533 8.533 12.8z" />
<glyph unicode="&#xe903;" glyph-name="arrow_right" d="M755.2 460.8l-452.267 448c-4.267 4.267-12.8 8.533-17.067 8.533-8.533 0-12.8-4.267-17.067-8.533-8.533-8.533-8.533-25.6 0-34.133l426.667-422.4c4.267-4.267 4.267-12.8 0-17.067 0 0 0 0 0 0l-426.667-418.133c-8.533-8.533-8.533-25.6 0-34.133 4.267 0 8.533-4.267 17.067-4.267v0c4.267 0 12.8 4.267 17.067 8.533l452.267 443.733c4.267 4.267 8.533 8.533 8.533 17.067 0 4.267-4.267 8.533-8.533 12.8z" />
<glyph unicode="&#xe904;" glyph-name="budget_result" d="M904.533 836.267h-785.067c-42.667 0-76.8-34.133-76.8-72.533 0 0 0 0 0 0v-110.933c0-42.667 34.133-72.533 76.8-72.533 0 0 0 0 0 0h8.533l17.067 51.2h-25.6c-12.8 0-21.333 8.533-21.333 17.067v115.2c0 12.8 8.533 21.333 21.333 17.067h123.733l-192-605.867c-4.267-12.8 4.267-21.333 12.8-25.6 0 0 4.267 0 8.533 0h72.533l-21.333-64c-4.267-12.8 4.267-21.333 12.8-25.6 0 0 4.267 0 8.533 0h473.6c8.533 0 17.067 4.267 21.333 12.8l221.867 708.267h46.933c12.8 0 21.333-8.533 21.333-17.067 0 0 0 0 0 0v-110.933c0-12.8-8.533-21.333-21.333-21.333 0 0 0 0 0 0h-46.933l-17.067-51.2h64c42.667 0 72.533 29.867 76.8 72.533 0 0 0 0 0 0v110.933c-4.267 38.4-38.4 72.533-81.067 72.533 0 0 0 0 0 0zM302.933 780.8h401.067l-179.2-563.2c-4.267-8.533-8.533-12.8-21.333-12.8h-358.4c-12.8 0-21.333 8.533-17.067 21.333 0 0 0 4.267 0 4.267l174.933 550.4zM593.067 128c-4.267-8.533-8.533-12.8-21.333-12.8h-384l12.8 34.133h341.333c8.533 0 17.067 4.267 21.333 12.8l196.267 618.667h42.667l-209.067-652.8zM290.133 571.733h17.067l12.8 89.6c4.267 25.6 51.2 34.133 46.933 8.533l-17.067-98.133h42.667l51.2 89.6c17.067 25.6 55.467 25.6 51.2 0l-8.533-89.6h42.667l51.2 93.867c17.067 25.6 55.467 17.067 42.667-4.267l-51.2-85.333h17.067c8.533 0 12.8-8.533 8.533-21.333-4.267-8.533-12.8-17.067-21.333-17.067h-25.6l-55.467-98.133c-21.333-38.4-68.267-38.4-64 0l12.8 93.867h-38.4l-55.467-93.867c-21.333-38.4-68.267-38.4-59.733 0l8.533 93.867h-25.6c-12.8 0-12.8 12.8-8.533 21.333s12.8 17.067 25.6 17.067zM332.8 473.6l38.4 59.733h-29.867l-8.533-59.733zM426.667 571.733h21.333l4.267 46.933-25.6-46.933zM473.6 477.867l34.133 55.467h-25.6l-8.533-55.467z" />
<glyph unicode="&#xe905;" glyph-name="budget_submit" d="M878.933 861.867h-490.667c8.533-17.067 12.8-34.133 12.8-51.2h477.867c29.867 0 51.2-25.6 51.2-51.2v-371.2c0-29.867-25.6-51.2-51.2-51.2h-418.133v-51.2h418.133c59.733 0 106.667 46.933 106.667 106.667v362.667c-4.267 59.733-51.2 106.667-106.667 106.667zM302.933 618.667h-153.6c-59.733 0-106.667-46.933-106.667-106.667 0 0 0 0 0 0v-204.8c0-46.933 29.867-89.6 76.8-102.4v-226.133h51.2v277.333h-21.333c-29.867 0-55.467 25.6-55.467 55.467v0 200.533c0 29.867 25.6 55.467 55.467 55.467v0h153.6c29.867 0 55.467-25.6 55.467-55.467v-204.8c0-29.867-25.6-55.467-55.467-55.467h-21.333v-273.067h51.2v226.133c46.933 12.8 76.8 55.467 76.8 102.4v200.533c0 59.733-46.933 110.933-106.667 110.933 4.267 0 0 0 0 0zM226.133 669.867c68.267 0 123.733 55.467 123.733 123.733s-55.467 123.733-123.733 123.733c-68.267 0-123.733-55.467-123.733-123.733v0c0-68.267 55.467-123.733 123.733-123.733 0 0 0 0 0 0v0zM226.133 866.133c38.4 0 72.533-34.133 72.533-72.533s-34.133-72.533-72.533-72.533-68.267 34.133-68.267 72.533v0c-4.267 38.4 29.867 72.533 68.267 72.533 0 0 0 0 0 0v0 0zM490.667 405.333c-12.8 0-21.333 8.533-25.6 21.333 0 4.267 0 8.533 4.267 12.8l89.6 149.333c4.267 8.533 12.8 8.533 17.067 8.533v0c8.533 0 12.8-4.267 17.067-8.533l42.667-68.267 55.467 59.733c8.533 8.533 21.333 8.533 29.867 0l34.133-29.867 68.267 179.2c4.267 12.8 17.067 17.067 29.867 12.8s17.067-17.067 12.8-29.867l-81.067-209.067c-4.267-8.533-8.533-12.8-17.067-12.8h-4.267c-4.267 0-8.533 0-12.8 4.267l-42.667 38.4-59.733-64c-4.267-4.267-8.533-8.533-17.067-8.533v0c-8.533 0-12.8 4.267-17.067 8.533l-38.4 59.733-72.533-119.467c0 0-4.267-4.267-12.8-4.267v0 0z" />
<glyph unicode="&#xe906;" glyph-name="business_submit" d="M657.067 110.933c0-12.8-8.533-21.333-21.333-21.333h-512c-12.8 0-21.333 8.533-21.333 21.333v546.133l157.867 128v-140.8h-81.067v-46.933h132.267v204.8h328.533c12.8 0 21.333-8.533 21.333-21.333v-179.2l51.2 46.933v136.533c0 38.4-29.867 68.267-68.267 68.267 0 0-4.267 0-4.267 0h-375.467c-4.267 0-8.533-4.267-12.8-8.533l-196.267-153.6c-4.267-4.267-4.267-12.8-8.533-17.067v-563.2c0-38.4 29.867-68.267 68.267-68.267 0 0 4.267 0 4.267 0h516.267c38.4 0 72.533 29.867 72.533 68.267v115.2l-51.2-17.067v-98.133zM494.933 435.2l12.8 21.333 21.333 21.333h-328.533c-12.8 0-25.6-8.533-25.6-21.333s8.533-25.6 21.333-25.6v0h294.4l4.267 4.267zM200.533 256c-12.8 0-25.6-8.533-25.6-21.333s8.533-25.6 21.333-25.6v0h221.867l-4.267 12.8c-4.267 8.533-4.267 17.067 0 21.333l4.267 12.8c4.267 4.267-217.6 4.267-217.6 0zM465.067 371.2h-264.533c-12.8 0-25.6-8.533-25.6-25.6 0-12.8 8.533-25.6 25.6-25.6h247.467l17.067 51.2zM503.467 209.067l179.2 59.733c4.267 0 8.533 4.267 8.533 8.533l213.333 200.533-38.4 34.133-174.933-170.667-81.067 76.8 213.333 204.8 115.2-110.933 38.4 34.133-149.333 145.067-281.6-273.067c-4.267-4.267-4.267-4.267-8.533-8.533l-68.267-170.667c-4.267-8.533-4.267-17.067 4.267-25.6 4.267-4.267 12.8-4.267 17.067-8.533 4.267 4.267 8.533 4.267 12.8 4.267v0zM648.533 307.2l-81.067-25.6-17.067 17.067 29.867 76.8 68.267-68.267z" />
<glyph unicode="&#xe907;" glyph-name="Business" d="M209.067 785.067c-17.067 0-34.133-12.8-34.133-34.133 0 0 0 0 0-4.267 0-17.067 12.8-34.133 34.133-34.133 0 0 4.267 0 4.267 0 17.067 0 34.133 17.067 34.133 34.133-4.267 25.6-17.067 38.4-38.4 38.4zM332.8 785.067c-17.067 0-34.133-12.8-34.133-34.133 0 0 0 0 0-4.267 0-17.067 12.8-34.133 34.133-34.133 17.067 0 34.133 17.067 34.133 34.133 0 0 0 0 0 0 0 17.067-12.8 29.867-29.867 34.133-4.267 4.267-4.267 4.267-4.267 4.267zM174.933 494.933c-4.267-17.067 8.533-34.133 29.867-38.4 0 0 4.267 0 4.267 0 21.333 0 38.4 17.067 38.4 34.133 0 21.333-17.067 38.4-34.133 38.4v0 0c-21.333 4.267-38.4-12.8-38.4-34.133v0 0zM294.4 494.933c0-21.333 17.067-34.133 34.133-38.4 21.333 0 38.4 17.067 38.4 38.4s-17.067 38.4-34.133 38.4v0 0c-21.333 0-38.4-17.067-38.4-38.4v0 0zM174.933 238.933c0-21.333 17.067-34.133 34.133-38.4 21.333 0 38.4 12.8 38.4 34.133s-12.8 42.667-34.133 42.667v0c-21.333 0-38.4-17.067-38.4-38.4v0 0zM294.4 238.933c0-21.333 17.067-34.133 34.133-38.4 21.333 0 38.4 17.067 38.4 38.4s-12.8 38.4-34.133 38.4v0 0c-21.333 0-38.4-17.067-38.4-38.4v0 0zM537.6 132.267l-4.267 8.533h-379.733c-29.867 0-55.467 21.333-55.467 51.2 0 0 0 0 0 0v149.333h422.4l4.267 8.533c4.267 8.533 8.533 17.067 12.8 29.867l8.533 17.067h-448v200.533h648.533v-81.067h55.467v281.6c0 59.733-46.933 106.667-106.667 106.667 0 0 0 0 0 0h-541.867c-59.733 0-110.933-46.933-110.933-106.667 0 0 0 0 0 0v-605.867c0-59.733 46.933-106.667 106.667-106.667 0 0 0 0 0 0h413.867l-8.533 21.333c-8.533 8.533-12.8 17.067-17.067 25.6v0zM98.133 648.533v149.333c0 29.867 21.333 51.2 51.2 51.2 0 0 4.267 0 4.267 0h537.6c29.867 0 51.2-21.333 55.467-51.2 0 0 0 0 0 0v-149.333h-648.533zM977.067 34.133l-59.733 76.8c42.667 38.4 64 89.6 64 145.067 4.267 115.2-89.6 209.067-204.8 213.333s-209.067-89.6-213.333-204.8c-4.267-115.2 89.6-209.067 204.8-213.333 0 0 0 0 0 0h4.267c34.133 0 68.267 8.533 102.4 25.6l59.733-76.8c8.533-12.8 25.6-12.8 38.4-4.267s12.8 25.6 4.267 38.4v0 0zM921.6 256c0-85.333-64-153.6-149.333-157.867-85.333 0-153.6 64-157.867 149.333 0 85.333 64 153.6 149.333 157.867h4.267c85.333 0 153.6-64 153.6-149.333v0zM729.6 358.4c-42.667-17.067-72.533-55.467-72.533-102.4 0-17.067 12.8-29.867 29.867-29.867s29.867 12.8 29.867 29.867c0 25.6 17.067 46.933 38.4 55.467 8.533 4.267 12.8 8.533 17.067 12.8 4.267 8.533 4.267 12.8 0 21.333-12.8 12.8-29.867 17.067-42.667 12.8v0 0z" />
<glyph unicode="&#xe908;" glyph-name="caravan" d="M981.333 277.333v42.667c0 12.8-8.533 21.333-21.333 21.333 0 0 0 0 0 0v0c-12.8 0-21.333-8.533-21.333-21.333v-17.067h-55.467c0 25.6-4.267 59.733-4.267 98.133 0 25.6-4.267 51.2-4.267 81.067-12.8 166.4-157.867 294.4-324.267 290.133h-187.733c-174.933-4.267-320-132.267-320-294.4 0-132.267 0-294.4 221.867-294.4h12.8c12.8 0 21.333 8.533 21.333 21.333 0 55.467 46.933 102.4 102.4 102.4s102.4-46.933 102.4-102.4c0-12.8 8.533-21.333 21.333-21.333h256c29.867-4.267 64 8.533 85.333 25.6 12.8 12.8 17.067 29.867 21.333 46.933h76.8c4.267 0 17.067 8.533 17.067 21.333 0 0 0 0 0 0v0zM827.733 238.933v0c-17.067-12.8-34.133-17.067-55.467-12.8h-238.933c-8.533 76.8-81.067 132.267-162.133 123.733-64-8.533-115.2-59.733-123.733-123.733-157.867 4.267-170.667 102.4-170.667 251.733 0 136.533 123.733 251.733 277.333 251.733h183.467c145.067 4.267 268.8-106.667 281.6-251.733 0-29.867 4.267-55.467 4.267-81.067 17.067-85.333 25.6-136.533 4.267-157.867v0zM699.733 396.8c0-14.138-11.462-25.6-25.6-25.6s-25.6 11.462-25.6 25.6c0 14.138 11.462 25.6 25.6 25.6s25.6-11.462 25.6-25.6zM699.733 614.4h-68.267c-34.133 0-64-29.867-64-64v0-290.133h38.4v290.133c0 12.8 8.533 21.333 21.333 21.333h68.267c12.8 0 21.333-8.533 21.333-21.333v0-290.133h42.667v290.133c0 34.133-25.6 64-59.733 64zM396.8 277.333c-42.667 0-76.8-34.133-76.8-76.8s34.133-76.8 76.8-76.8 76.8 34.133 76.8 76.8-34.133 76.8-76.8 76.8v0zM396.8 166.4v0c-17.067 0-34.133 17.067-34.133 34.133s17.067 34.133 34.133 34.133 34.133-17.067 34.133-34.133v0c0-17.067-17.067-34.133-34.133-34.133zM409.6 614.4h-149.333c-34.133 0-64-29.867-64-64v0-55.467c0-34.133 29.867-64 64-64h149.333c34.133 0 64 29.867 64 64v55.467c4.267 34.133-25.6 64-64 64v0zM435.2 494.933c0-12.8-8.533-21.333-21.333-21.333h-153.6c-12.8 0-21.333 8.533-21.333 21.333v55.467c0 12.8 8.533 21.333 21.333 21.333h149.333c12.8 0 21.333-8.533 21.333-21.333v-55.467z" />
<glyph unicode="&#xe909;" glyph-name="case" d="M840.533 469.333l-42.667-17.067v-4.267c0-170.667-132.267-307.2-302.933-307.2-115.2 0-221.867 64-277.333 170.667 81.067 21.333 162.133 46.933 238.933 81.067 8.533 4.267 12.8 17.067 8.533 29.867-4.267 8.533-12.8 12.8-21.333 8.533v0c-81.067-29.867-162.133-59.733-238.933-81.067-59.733 162.133 25.6 332.8 187.733 392.533 98.133 34.133 209.067 17.067 294.4-46.933 29.867-12.8 59.733-21.333 89.6-29.867v0c-119.467 153.6-337.067 179.2-490.667 59.733-110.933-93.867-162.133-247.467-115.2-384-81.067-17.067-93.867 0-93.867 0 4.267 21.333 12.8 42.667 29.867 64 8.533 8.533 12.8 21.333 4.267 29.867s-21.333 12.8-29.867 4.267l-4.267-4.267c-12.8-12.8-68.267-76.8-34.133-115.2 17.067-17.067 42.667-29.867 68.267-25.6 25.6 0 55.467 4.267 81.067 8.533 81.067-174.933 290.133-247.467 465.067-170.667 123.733 59.733 200.533 183.467 200.533 315.733-17.067 8.533-17.067 12.8-17.067 21.333zM576 422.4c-17.067 0-38.4 4.267-55.467 17.067l-85.333 76.8c-4.267 4.267-8.533 8.533-8.533 17.067 0 4.267 4.267 12.8 8.533 17.067 12.8 8.533 25.6 12.8 42.667 12.8 8.533 0 17.067 0 29.867-4.267l42.667-12.8c4.267 0 8.533 0 12.8 0 8.533 0 17.067 0 25.6 4.267l17.067 8.533-81.067 68.267c-8.533 8.533-8.533 21.333 0 29.867 8.533 4.267 12.8 4.267 17.067 4.267 12.8 4.267 29.867 8.533 46.933 8.533s38.4-4.267 55.467-12.8c42.667-17.067 85.333-29.867 132.267-38.4l106.667 42.667c12.8 4.267 29.867 8.533 46.933 8.533s38.4-4.267 55.467-17.067v0c8.533-12.8 12.8-25.6 8.533-42.667 0-21.333-12.8-34.133-34.133-42.667l-328.533-132.267c-17.067-8.533-34.133-12.8-55.467-12.8v0zM503.467 516.267l46.933-42.667c8.533-4.267 17.067-8.533 25.6-8.533 12.8 0 25.6 4.267 38.4 8.533l328.533 132.267c4.267 0 8.533 4.267 8.533 12.8 0 4.267 0 4.267 0 8.533-4.267 0-12.8 4.267-21.333 0-8.533 0-21.333 0-34.133-4.267l-110.933-42.667h-8.533c-46.933 8.533-102.4 21.333-145.067 42.667-12.8 0-21.333 4.267-29.867 4.267l72.533-59.733c4.267-4.267 8.533-12.8 8.533-17.067 0-8.533-4.267-12.8-12.8-17.067l-55.467-21.333c-12.8-4.267-29.867-8.533-42.667-8.533-8.533 0-17.067 0-25.6 4.267l-42.667 8.533z" />
<glyph unicode="&#xe90a;" glyph-name="chart" d="M456.533 819.2h-12.8c-230.4-12.8-405.333-213.333-392.533-443.733 12.8-217.6 187.733-388.267 405.333-392.533h8.533c226.133 0 409.6 179.2 418.133 405.333v12.8h-426.667v418.133zM401.067 759.467v-102.4h-200.533c55.467 51.2 123.733 89.6 200.533 102.4zM157.867 597.333h243.2v-89.6h-285.867c8.533 34.133 25.6 64 42.667 89.6zM102.4 401.067c0 17.067 0 34.133 4.267 51.2h294.4v-59.733l-29.867-25.6h-268.8v34.133zM162.133 196.267c-25.6 34.133-42.667 72.533-51.2 115.2h187.733l-136.533-115.2zM823.467 345.6c-29.867-179.2-179.2-307.2-358.4-307.2h-8.533c-98.133 4.267-187.733 46.933-256 115.2l234.667 192h388.267zM981.333 507.733c-4.267 221.867-187.733 401.067-409.6 405.333h-17.067v-418.133h426.667v12.8zM921.6 550.4h-311.467v307.2c162.133-21.333 290.133-149.333 311.467-307.2v0 0z" />
<glyph unicode="&#xe90b;" glyph-name="checkboard" d="M819.2 827.733h-183.467c-25.6 68.267-98.133 102.4-166.4 81.067-38.4-12.8-64-42.667-81.067-81.067h-183.467c-46.933 0-85.333-38.4-85.333-85.333 0 0 0 0 0 0v-614.4c0-46.933 38.4-85.333 85.333-85.333h610.133c46.933 0 85.333 38.4 85.333 85.333v614.4c4.267 46.933-34.133 85.333-81.067 85.333 0 0 0 0 0 0zM512 827.733c25.6 0 42.667-17.067 42.667-42.667s-17.067-42.667-42.667-42.667c-25.6 0-42.667 17.067-42.667 42.667s21.333 42.667 42.667 42.667v0zM426.667 217.6l-174.933 174.933 59.733 59.733 115.2-110.933 285.867 290.133 59.733-59.733-345.6-354.133z" />
<glyph unicode="&#xe90c;" glyph-name="computer" d="M896 832h-768c-46.933 0-85.333-38.4-85.333-85.333v-512c0-46.933 38.4-85.333 85.333-85.333h213.333v-85.333h341.333v85.333h213.333c46.933 0 85.333 38.4 85.333 85.333v512c0 46.933-38.4 85.333-85.333 85.333zM896 234.667h-768v512h768v-512zM810.667 618.667h-469.333v-85.333h469.333v85.333zM810.667 448h-469.333v-85.333h469.333v85.333zM298.667 618.667h-85.333v-85.333h85.333v85.333zM298.667 448h-85.333v-85.333h85.333v85.333z" />
<glyph unicode="&#xe90d;" glyph-name="diagnosis" d="M55.467 537.6v0l243.2-256c4.267 0 4.267-4.267 8.533-4.267l162.133-55.467h8.533c4.267 0 12.8 4.267 17.067 8.533 4.267 8.533 8.533 17.067 4.267 25.6l-59.733 170.667c0 4.267-4.267 4.267-4.267 8.533l-256 260.267-17.067-17.067-119.467-123.733 12.8-17.067zM409.6 294.4l-72.533 25.6 64 68.267 25.6-76.8-17.067-17.067zM298.667 349.867l-192 204.8 72.533 76.8 192-204.8-72.533-76.8zM290.133 238.933v-81.067h358.4v93.867h46.933v-93.867h238.933v264.533h-238.933v-72.533h-46.933v196.267h46.933v-72.533h238.933v260.267h-238.933v-93.867h-46.933v93.867h-174.933v46.933h507.733v-669.867h-738.133v166.4l21.333-25.6c8.533-4.267 17.067-8.533 25.6-12.8v0 0zM290.133 644.267l-46.933 46.933v89.6h115.2v-46.933h-68.267v-89.6c0 0 0 0 0 0zM550.4 567.467h-187.733l-46.933 51.2h230.4l4.267-51.2z" />
<glyph unicode="&#xe90e;" glyph-name="document" d="M337.067 418.133l-59.733 46.933 21.333 34.133 29.867-25.6 51.2 64 29.867-21.333-72.533-98.133zM337.067 281.6l-59.733 46.933 21.333 29.867 29.867-25.6 51.2 64 29.867-21.333-72.533-93.867zM337.067 140.8l-59.733 51.2 21.333 29.867 29.867-25.6 51.2 64 29.867-21.333-72.533-98.133zM793.6 883.2h-422.4c-4.267 0-8.533-4.267-8.533-4.267l-196.267-166.4c-8.533-4.267-8.533-8.533-12.8-17.067v0-610.133c0-42.667 34.133-76.8 76.8-76.8h563.2c42.667 0 76.8 34.133 76.8 76.8 0 0 0 0 0 0v725.333c0 42.667-34.133 72.533-76.8 72.533v0zM814.933 85.333c0-12.8-8.533-21.333-21.333-21.333h-563.2c-12.8 0-21.333 8.533-21.333 21.333v584.533l166.4 140.8v-149.333h-81.067v-51.2h132.267v221.867h366.933c12.8 0 21.333-8.533 21.333-21.333v-725.333zM716.8 157.867h-238.933c-12.8 0-25.6 12.8-25.6 25.6s12.8 25.6 25.6 25.6c0 0 0 0 0 0h238.933c12.8 0 25.6-12.8 25.6-25.6s-8.533-25.6-25.6-25.6c0 0 0 0 0 0v0zM716.8 307.2h-238.933c-12.8 0-25.6 12.8-25.6 25.6s12.8 25.6 25.6 25.6c0 0 0 0 0 0h238.933c12.8 0 25.6-12.8 25.6-25.6s-8.533-25.6-25.6-25.6c0 0 0 0 0 0v0zM716.8 452.267h-238.933c-12.8 0-25.6 12.8-25.6 25.6s12.8 25.6 25.6 25.6c0 0 0 0 0 0h238.933c12.8 0 25.6-12.8 25.6-25.6s-8.533-25.6-25.6-25.6c4.267 0 4.267 0 0 0v0 0z" />
<glyph unicode="&#xe90f;" glyph-name="execution_biz" d="M285.867 298.667c4.267-4.267 8.533-4.267 12.8-4.267 8.533 0 17.067 4.267 21.333 12.8l115.2 179.2 81.067-115.2c4.267-8.533 12.8-12.8 21.333-12.8 4.267 0 12.8 4.267 17.067 8.533l115.2 110.933 85.333-81.067c4.267-4.267 12.8-8.533 17.067-8.533h4.267c8.533 4.267 17.067 8.533 17.067 17.067l136.533 341.333c4.267 4.267 4.267 12.8 0 21.333-4.267 4.267-8.533 12.8-12.8 12.8-12.8 4.267-29.867 0-34.133-12.8l-119.467-302.933-76.8 68.267c-8.533 8.533-25.6 8.533-34.133 0l-110.933-106.667-85.333 119.467c-8.533 12.8-25.6 17.067-38.4 8.533-4.267 0-4.267-4.267-8.533-8.533l-136.533-213.333c-4.267-12.8 0-25.6 12.8-34.133 0 0 0 0 0 0zM196.267 209.067v605.867h-51.2v-98.133h-76.8v-51.2h76.8v-153.6h-76.8v-51.2h76.8v-153.6h-76.8v-51.2h76.8v-98.133h102.4v-72.533h51.2v76.8h132.267v-72.533h51.2v72.533h132.267v-72.533h51.2v72.533h132.267v-72.533h55.467v72.533h102.4v51.2h-759.467z" />
<glyph unicode="&#xe910;" glyph-name="execution_region" d="M618.667 768c-51.2 29.867-106.667 42.667-166.4 42.667v0c-110.933 0-217.6-55.467-277.333-149.333-89.6-140.8-46.933-328.533 98.133-418.133 0 0 0 0 0 0l12.8-8.533c51.2-29.867 106.667-42.667 166.4-42.667 110.933 0 217.6 55.467 281.6 153.6 89.6 140.8 46.933 328.533-98.133 418.133 0 0 0 0 0 0l-17.067 4.267zM704 601.6c-59.733-34.133-106.667-81.067-149.333-132.267l-68.267 38.4 128 204.8c42.667-25.6 72.533-64 89.6-110.933v0 0zM452.267 763.733v0c42.667 0 81.067-8.533 119.467-25.6l-128-204.8-68.267 42.667c29.867 55.467 46.933 119.467 51.2 187.733 8.533 0 17.067 0 25.6 0v0 0zM375.467 750.933c-4.267-51.2-17.067-106.667-42.667-153.6l-102.4 59.733c38.4 46.933 89.6 81.067 145.067 93.867 0 0 0 0 0 0zM204.8 614.4l102.4-55.467c-34.133-42.667-72.533-81.067-119.467-110.933-12.8 55.467-8.533 115.2 17.067 166.4v0 0zM200.533 401.067c59.733 34.133 110.933 76.8 149.333 132.267l68.267-38.4-128-204.8c-38.4 25.6-72.533 64-89.6 110.933v0 0zM452.267 238.933c-42.667 0-81.067 8.533-119.467 25.6l128 204.8 68.267-38.4c-29.867-59.733-51.2-123.733-51.2-187.733l-25.6-4.267zM524.8 251.733c4.267 55.467 21.333 106.667 46.933 153.6l98.133-59.733c-34.133-46.933-85.333-81.067-145.067-93.867v0 0zM695.467 388.267l-98.133 59.733c34.133 42.667 72.533 81.067 119.467 110.933 12.8-59.733 8.533-115.2-21.333-170.667v0zM452.267 814.933v0zM896 503.467c0 145.067-76.8 277.333-196.267 349.867l17.067 25.6c8.533 12.8 4.267 25.6-8.533 34.133v0c-12.8 8.533-25.6 4.267-34.133-8.533l-34.133-46.933c-8.533-12.8-4.267-25.6 8.533-34.133v0c119.467-64 196.267-187.733 196.267-324.267-4.267-209.067-179.2-375.467-388.267-371.2-72.533 0-140.8 17.067-200.533 55.467v0c-12.8 8.533-25.6 4.267-34.133-8.533l-29.867-46.933c-8.533-12.8-4.267-25.6 8.533-34.133v0c4.267-4.267 8.533-4.267 12.8-4.267 8.533 0 17.067 4.267 21.333 12.8l17.067 25.6c51.2-25.6 106.667-42.667 162.133-46.933v-55.467h-136.533v-46.933h328.533v46.933h-140.8v55.467c234.667 0 426.667 187.733 430.933 422.4v0z" />
<glyph unicode="&#xe911;" glyph-name="execution_year" d="M260.267 584.533c8.533 0 12.8 4.267 17.067 8.533l119.467 123.733v-55.467c0-12.8 12.8-25.6 25.6-25.6s25.6 12.8 25.6 25.6v119.467c0 12.8-8.533 25.6-25.6 25.6v0h-119.467c-12.8-4.267-25.6-17.067-21.333-29.867 0-12.8 12.8-21.333 21.333-21.333h64l-123.733-123.733c-4.267-8.533-8.533-12.8-8.533-21.333s4.267-12.8 8.533-17.067c4.267-4.267 8.533-8.533 17.067-8.533zM153.6 140.8v665.6h-51.2v-721.067h819.2v51.2l-768 4.267zM422.4 213.333v162.133c0 38.4-29.867 68.267-68.267 68.267h-46.933c-38.4 0-68.267-29.867-68.267-68.267v-162.133h51.2v162.133c0 8.533 8.533 17.067 17.067 17.067h46.933c8.533 0 17.067-8.533 17.067-17.067v0-162.133h51.2zM537.6 524.8c0 8.533 8.533 17.067 17.067 17.067 0 0 0 0 0 0h46.933c8.533 0 17.067-8.533 17.067-17.067v0-311.467h51.2v311.467c0 38.4-29.867 68.267-68.267 68.267h-46.933c-38.4 0-68.267-29.867-68.267-68.267v-311.467h51.2v311.467zM785.067 733.867c0 8.533 8.533 17.067 17.067 17.067v0h46.933c8.533 0 17.067-8.533 17.067-17.067v0-524.8h51.2v524.8c0 38.4-29.867 68.267-68.267 72.533h-46.933c-38.4 0-68.267-29.867-68.267-72.533v-524.8h51.2v524.8z" />
<glyph unicode="&#xe912;" glyph-name="facility_status" d="M149.333 507.733c17.067 0 29.867 12.8 29.867 29.867s-12.8 29.867-29.867 29.867c-17.067 0-29.867-12.8-29.867-29.867v0c-4.267-17.067 12.8-29.867 29.867-29.867 0 0 0 0 0 0zM460.8 264.533v12.8h-209.067v520.533h550.4c12.8 0 21.333-8.533 21.333-21.333v-358.4l46.933-8.533v371.2c0 38.4-29.867 68.267-68.267 68.267h-691.2c-38.4-4.267-68.267-34.133-68.267-68.267v-482.133c0-38.4 29.867-68.267 68.267-68.267h354.133l-4.267 12.8c0 4.267 0 12.8 0 21.333 0 0 0 0 0 0zM89.6 780.8c0 12.8 8.533 21.333 21.333 21.333h93.867v-524.8h-93.867c-12.8 0-21.333 8.533-21.333 21.333v482.133zM913.067 366.933l-132.267 21.333v132.267c0 34.133-29.867 64-64 64h-4.267c-34.133 0-64-29.867-64-64v-238.933l-34.133 34.133c-25.6 25.6-64 25.6-89.6 0l-4.267-4.267c-25.6-25.6-25.6-64 0-89.6l162.133-162.133c8.533-8.533 25.6-8.533 34.133 0s8.533 25.6 0 34.133v0l-162.133 162.133c-4.267 8.533-4.267 17.067 0 21.333v0c8.533 4.267 17.067 4.267 21.333 0l55.467-55.467c4.267-4.267 8.533-4.267 12.8-4.267s8.533 0 12.8 0h8.533c8.533 4.267 17.067 12.8 21.333 21.333s4.267 12.8 4.267 21.333c0 4.267 0 4.267 0 4.267v0 256c0 8.533 8.533 17.067 17.067 17.067h4.267c8.533 0 17.067-8.533 17.067-17.067v0-170.667l174.933-29.867c21.333-8.533 34.133-29.867 29.867-51.2l-12.8-183.467c0-4.267 0-12.8 4.267-17.067s12.8-8.533 17.067-8.533c12.8 0 21.333 8.533 25.6 21.333l17.067 183.467c0 46.933-29.867 89.6-72.533 102.4v0zM955.733 76.8v0zM520.533 669.867l106.667-93.867 8.533 8.533c4.267 4.267 8.533 8.533 12.8 12.8l12.8 8.533-128 110.933c-8.533 8.533-21.333 8.533-29.867 0l-179.2-153.6c-8.533-8.533-8.533-25.6-4.267-34.133 8.533-8.533 25.6-8.533 34.133-4.267l12.8 8.533v-140.8c0-12.8 12.8-25.6 25.6-25.6v0h115.2v85.333h29.867v-85.333h72.533v46.933h-25.6v59.733c0 12.8-12.8 25.6-25.6 25.6v0h-76.8c-12.8 0-25.6-12.8-25.6-25.6v0-59.733h-42.667v166.4l106.667 89.6z" />
<glyph unicode="&#xe913;" glyph-name="facility" d="M486.4 648.533h-59.733v55.467h59.733v-55.467zM593.067 648.533h-59.733v55.467h59.733v-55.467zM486.4 537.6h-59.733v55.467h59.733v-55.467zM593.067 537.6h-59.733v55.467h59.733v-55.467zM251.733 315.733h-55.467v55.467h55.467v-55.467c0 0 0 0 0 0zM251.733-17.067h-55.467v55.467h55.467c0 0 0-55.467 0-55.467zM251.733 93.867h-55.467v55.467h55.467c0 0 0-55.467 0-55.467zM251.733 204.8h-55.467v55.467h55.467c0 0 0-55.467 0-55.467zM827.733-17.067h-59.733v55.467h59.733v-55.467zM827.733 93.867h-59.733v55.467h59.733c0 0 0-55.467 0-55.467zM827.733 204.8h-59.733v55.467h59.733c0 0 0-55.467 0-55.467zM486.4-21.333h-55.467v55.467h59.733l-4.267-55.467zM593.067-21.333h-59.733v55.467h59.733v-55.467zM486.4 89.6h-55.467v59.733h59.733l-4.267-59.733zM593.067 89.6h-59.733v59.733h59.733v-59.733zM486.4 200.533h-55.467v55.467h59.733l-4.267-55.467zM593.067 200.533h-59.733v55.467h59.733v-55.467zM486.4 311.467h-55.467v55.467h59.733l-4.267-55.467zM593.067 311.467h-59.733v55.467h59.733v-55.467zM486.4 426.667h-55.467v55.467h59.733l-4.267-55.467zM593.067 426.667h-59.733v55.467h59.733c0 0 0-55.467 0-55.467zM85.333 409.6v-430.933h51.2v430.933c0 12.8 8.533 21.333 21.333 21.333h93.867v46.933h-93.867c-38.4 0-72.533-29.867-72.533-68.267zM866.133 366.933h-93.867v-46.933h93.867c12.8 0 21.333-8.533 21.333-21.333v-320h51.2v315.733c0 38.4-29.867 72.533-72.533 72.533v0 0zM644.267 806.4h-110.933v85.333c4.267 12.8-8.533 25.6-21.333 25.6s-25.6-8.533-25.6-21.333v0-85.333h-106.667c-38.4 0-68.267-34.133-68.267-72.533 0 0 0 0 0 0v-759.467h51.2v759.467c0 12.8 8.533 21.333 21.333 21.333h264.533c12.8 0 21.333-8.533 21.333-21.333v-759.467h51.2v759.467c-4.267 38.4-38.4 68.267-76.8 68.267v0 0z" />
<glyph unicode="&#xe914;" glyph-name="go_top" d="M529.067 678.4c-4.267 4.267-8.533 8.533-17.067 8.533v0c-4.267 0-12.8-4.267-17.067-8.533l-217.6-221.867c-8.533-8.533-8.533-21.333 0-29.867 4.267-4.267 12.8-8.533 17.067-8.533s12.8 4.267 17.067 8.533l179.2 179.2v-375.467c0-12.8 8.533-21.333 21.333-21.333s21.333 8.533 21.333 21.333v375.467l179.2-179.2c4.267-4.267 8.533-8.533 17.067-8.533 4.267 0 12.8 4.267 17.067 8.533 8.533 8.533 8.533 21.333 0 34.133l-217.6 217.6zM512 917.333c-260.267 0-469.333-209.067-469.333-469.333s209.067-469.333 469.333-469.333 469.333 209.067 469.333 469.333-209.067 469.333-469.333 469.333zM678.4 55.467c-217.6-89.6-465.067 8.533-554.667 226.133s8.533 465.067 226.133 554.667c51.2 21.333 106.667 34.133 166.4 34.133v0c55.467 0 110.933-12.8 162.133-34.133 217.6-89.6 315.733-341.333 226.133-554.667-46.933-102.4-128-183.467-226.133-226.133z" />
<glyph unicode="&#xe915;" glyph-name="ic_account_circle" d="M512 913.067c-260.267 0-469.333-209.067-469.333-469.333s209.067-469.333 469.333-469.333 469.333 209.067 469.333 469.333v0c0 260.267-209.067 469.333-469.333 469.333zM512 772.267c76.8 0 140.8-64 140.8-140.8s-64-140.8-140.8-140.8-140.8 64-140.8 140.8v0c0 76.8 64 140.8 140.8 140.8v0zM512 106.667c-115.2 0-217.6 55.467-281.6 149.333 0 93.867 187.733 145.067 281.6 145.067s281.6-51.2 281.6-145.067c-64-93.867-166.4-149.333-281.6-149.333z" />
<glyph unicode="&#xe916;" glyph-name="ic_add" d="M981.333 379.733h-401.067v-401.067h-132.267v401.067h-405.333v132.267h401.067v405.333h132.267v-401.067h405.333v-136.533z" />
<glyph unicode="&#xe917;" glyph-name="ic_admin_info" d="M955.733 541.867l-98.133 17.067c-8.533 21.333-12.8 42.667-25.6 59.733l59.733 81.067c4.267 12.8 4.267 25.6-4.267 38.4l-89.6 89.6c-8.533 8.533-25.6 12.8-34.133 4.267l-81.067-59.733c-21.333 8.533-42.667 17.067-64 21.333l-17.067 98.133c0 17.067-12.8 25.6-25.6 25.6h-123.733c-12.8 0-25.6-8.533-25.6-21.333l-21.333-102.4c-21.333-4.267-38.4-12.8-59.733-25.6l-85.333 59.733c-8.533 8.533-25.6 8.533-34.133-4.267l-89.6-85.333c-8.533-12.8-8.533-25.6 0-38.4l59.733-81.067c-12.8-21.333-21.333-38.4-25.6-59.733l-98.133-17.067c-12.8-4.267-21.333-12.8-21.333-25.6v-123.733c0-12.8 8.533-25.6 21.333-25.6l98.133-25.6c8.533-21.333 17.067-42.667 25.6-59.733l-59.733-81.067c-8.533-12.8-8.533-25.6 0-34.133l89.6-89.6c8.533-12.8 25.6-12.8 38.4-4.267l81.067 59.733c17.067-12.8 38.4-21.333 59.733-25.6l17.067-102.4c4.267-12.8 12.8-21.333 25.6-21.333h123.733c12.8 0 25.6 8.533 25.6 21.333l17.067 102.4c21.333 8.533 42.667 17.067 59.733 25.6l81.067-59.733c12.8-8.533 25.6-8.533 38.4 4.267l89.6 89.6c8.533 8.533 12.8 25.6 4.267 38.4l-59.733 81.067c8.533 21.333 17.067 38.4 25.6 59.733l98.133 17.067c12.8 4.267 21.333 12.8 21.333 25.6v123.733c8.533 12.8-4.267 25.6-17.067 29.867zM921.6 413.867l-51.2-8.533-29.867-4.267-29.867-8.533c-4.267-21.333-8.533-38.4-17.067-59.733v0c-8.533-17.067-17.067-38.4-29.867-51.2l34.133-51.2 34.133-42.667-55.467-55.467-42.667 34.133-51.2 34.133c-17.067-12.8-34.133-21.333-51.2-29.867h-4.267c-17.067-8.533-38.4-12.8-55.467-17.067l-8.533-59.733-8.533-55.467h-76.8l-8.533 55.467-8.533 59.733c-21.333 4.267-38.4 8.533-55.467 17.067h-12.8c-17.067 8.533-34.133 17.067-51.2 29.867l-51.2-34.133-46.933-34.133-55.467 55.467 38.4 46.933 34.133 51.2c-12.8 17.067-21.333 34.133-29.867 51.2v4.267c-8.533 17.067-12.8 34.133-17.067 55.467l-59.733 8.533-55.467 8.533v76.8l55.467 8.533 59.733 8.533c4.267 21.333 8.533 38.4 17.067 55.467v4.267c8.533 17.067 17.067 34.133 29.867 51.2l-34.133 51.2-29.867 42.667 55.467 55.467 46.933-34.133 25.6-17.067 17.067-12.8c17.067 12.8 34.133 21.333 51.2 29.867h4.267c17.067 8.533 38.4 12.8 55.467 17.067l8.533 59.733 8.533 55.467h76.8l8.533-55.467 8.533-59.733c21.333-4.267 38.4-8.533 55.467-17.067h4.267c25.6-8.533 42.667-17.067 59.733-29.867l51.2 34.133 46.933 34.133 55.467-55.467-29.867-46.933-17.067-25.6-25.6-25.6c12.8-17.067 21.333-34.133 29.867-51.2v-4.267c8.533-17.067 12.8-38.4 17.067-55.467l59.733-8.533 55.467-4.267v-81.067h-4.267zM512 614.4c-89.6 0-166.4-72.533-166.4-166.4s72.533-166.4 166.4-166.4 166.4 72.533 166.4 166.4v0c0 93.867-72.533 166.4-166.4 166.4v0 0zM512 341.333c-59.733 0-110.933 51.2-110.933 110.933s51.2 110.933 110.933 110.933c59.733 0 110.933-51.2 110.933-110.933 0 0 0 0 0 0v0c0-64-51.2-110.933-110.933-110.933v0z" />
<glyph unicode="&#xe918;" glyph-name="ic_admin" d="M379.733 264.533h-234.667c-55.467 0-98.133-42.667-98.133-98.133 0 0 0 0 0 0v-157.867h51.2v157.867c0 25.6 21.333 51.2 51.2 46.933 0 0 0 0 0 0h234.667c25.6 0 46.933-21.333 46.933-46.933v-157.867h51.2v157.867c-4.267 55.467-46.933 98.133-102.4 98.133zM857.6 887.467h-298.667c-68.267 0-123.733-55.467-123.733-119.467 0 0 0 0 0 0v-149.333c0-68.267 55.467-119.467 123.733-119.467 0 0 0 0 0 0h17.067l-76.8-68.267c-8.533-8.533-8.533-25.6 0-34.133v0c8.533-8.533 25.6-8.533 34.133 0l166.4 149.333h-145.067c-38.4 0-72.533 34.133-72.533 72.533 0 0 0 0 0 0v149.333c0 38.4 34.133 72.533 72.533 72.533 0 0 0 0 0 0h298.667c38.4 0 72.533-34.133 72.533-72.533 0 0 0 0 0 0v-149.333c0-38.4-29.867-72.533-72.533-72.533h-81.067l-46.933-51.2h136.533c68.267 0 123.733 55.467 123.733 119.467 0 0 0 0 0 0v153.6c-4.267 68.267-59.733 119.467-128 119.467zM256 320c81.067 0 140.8 68.267 140.8 145.067s-64 145.067-145.067 140.8c-76.8 0-140.8-64-140.8-145.067 0-76.8 64-140.8 145.067-140.8 0 0 0 0 0 0v0zM162.133 465.067c0 51.2 42.667 98.133 93.867 98.133s98.133-42.667 98.133-93.867c0-51.2-42.667-98.133-93.867-98.133h-4.267c-51.2-4.267-93.867 38.4-93.867 93.867v0 0z" />
<glyph unicode="&#xe919;" glyph-name="ic_assignment_turned_in" d="M836.267 823.467h-196.267c-25.6 72.533-106.667 110.933-179.2 85.333-38.4-12.8-72.533-46.933-85.333-85.333h-192c-51.2 0-93.867-42.667-93.867-93.867 0 0 0 0 0 0v-657.067c0-51.2 38.4-93.867 89.6-93.867 0 0 0 0 0 0h657.067c51.2 0 93.867 42.667 93.867 93.867 0 0 0 0 0 0v657.067c0 51.2-42.667 93.867-93.867 93.867 0 0 0 0 0 0zM512 823.467c25.6 0 46.933-21.333 46.933-46.933s-21.333-46.933-46.933-46.933c-25.6 0-46.933 21.333-46.933 46.933s17.067 46.933 46.933 46.933zM418.133 166.4l-187.733 187.733 68.267 68.267 119.467-119.467 307.2 302.933 64-68.267-371.2-371.2z" />
<glyph unicode="&#xe91a;" glyph-name="ic_assignment" d="M857.6 823.467h-204.8c-29.867 76.8-119.467 115.2-196.267 81.067-38.4-12.8-68.267-42.667-81.067-81.067h-209.067c-51.2 0-98.133-38.4-98.133-93.867 0 0 0 0 0 0v0-652.8c0-51.2 46.933-93.867 98.133-93.867 0 0 0 0 0 0h691.2c51.2 0 98.133 38.4 98.133 93.867 0 0 0 0 0 0v0 652.8c0 51.2-46.933 93.867-98.133 93.867 0 0 0 0 0 0v0 0zM512 823.467c25.6 0 46.933-21.333 42.667-46.933 0-25.6-21.333-46.933-46.933-42.667-25.6 0-42.667 21.333-42.667 46.933 0 21.333 21.333 42.667 46.933 42.667 0 0 0 0 0 0zM610.133 170.667h-345.6v93.867h345.6v-93.867zM759.467 358.4h-494.933v93.867h494.933v-93.867zM759.467 541.867h-494.933v93.867h494.933v-93.867z" />
<glyph unicode="&#xe91b;" glyph-name="ic_attachment" d="M302.933 217.6c-128-8.533-238.933 89.6-247.467 221.867s89.6 238.933 221.867 247.467c8.533 0 17.067 0 29.867 0h490.667c93.867 0 170.667-76.8 170.667-170.667s-76.8-170.667-170.667-170.667h-401.067c-59.733-4.267-110.933 38.4-115.2 98.133s38.4 110.933 98.133 115.2c4.267 0 12.8 0 17.067 0h349.867v-64h-349.867c-25.6 0-42.667-17.067-46.933-38.4 0-25.6 17.067-42.667 38.4-46.933h405.333c59.733-4.267 110.933 38.4 115.2 98.133s-38.4 110.933-98.133 115.2c-4.267 0-12.8 0-17.067 0h-490.667c-93.867 0-170.667-76.8-170.667-170.667s76.8-170.667 170.667-170.667h443.733v-64h-443.733z" />
<glyph unicode="&#xe91c;" glyph-name="ic_border_color" d="M716.8 618.667l-145.067 145.067-388.267-379.733v-145.067h145.067l388.267 379.733zM832 729.6c12.8 12.8 12.8 38.4 0 51.2 0 0 0 0 0 0v0l-89.6 93.867c-17.067 12.8-38.4 12.8-55.467 0l-76.8-72.533 145.067-145.067 76.8 72.533zM981.333 162.133h-938.667v-153.6h938.667v153.6z" />
<glyph unicode="&#xe91d;" glyph-name="ic_check" d="M341.333 247.467l-221.867 213.333-76.8-72.533 298.667-290.133 640 622.933-76.8 72.533-563.2-546.133z" />
<glyph unicode="&#xe91e;" glyph-name="ic_cloud_done" d="M797.867 520.533c-29.867 132.267-149.333 221.867-285.867 217.6-106.667 0-204.8-55.467-256-145.067-119.467-4.267-213.333-106.667-209.067-226.133s106.667-213.333 226.133-209.067v0h512c98.133-8.533 187.733 68.267 196.267 166.4s-68.267 187.733-170.667 196.267h-12.8zM435.2 264.533l-136.533 128 55.467 51.2 81.067-76.8 200.533 187.733 55.467-51.2-256-238.933z" />
<glyph unicode="&#xe91f;" glyph-name="ic_content_paste" d="M810.667 827.733h-179.2c-25.6 64-98.133 98.133-166.4 72.533-34.133-12.8-59.733-38.4-72.533-72.533h-179.2c-46.933 0-85.333-38.4-85.333-85.333v-678.4c0-46.933 38.4-85.333 85.333-85.333h597.333c46.933 0 85.333 38.4 85.333 85.333v682.667c0 46.933-38.4 81.067-85.333 81.067zM512 827.733c25.6 0 42.667-17.067 42.667-42.667s-17.067-42.667-42.667-42.667-42.667 17.067-42.667 42.667 21.333 42.667 42.667 42.667zM810.667 68.267h-597.333v678.4h85.333v-128h426.667v128h85.333c0 0 0-678.4 0-678.4z" />
<glyph unicode="&#xe920;" glyph-name="ic_create" d="M106.667 226.133v-162.133h170.667l499.2 469.333-166.4 162.133-503.467-469.333zM904.533 657.067c17.067 17.067 17.067 42.667 0 55.467v4.267l-106.667 98.133c-17.067 17.067-46.933 17.067-64 0l-81.067-76.8 166.4-157.867 85.333 76.8z" />
<glyph unicode="&#xe921;" glyph-name="ic_dvr" d="M896 819.2h-768c-46.933 0-85.333-38.4-85.333-81.067v-494.933c0-46.933 38.4-81.067 85.333-81.067h213.333v-81.067h341.333v85.333h213.333c46.933 0 85.333 38.4 85.333 81.067v0 490.667c0 42.667-38.4 81.067-85.333 81.067zM896 243.2h-768v494.933h768v-494.933zM810.667 614.4h-469.333v-81.067h469.333v81.067zM810.667 448h-469.333v-81.067h469.333v81.067zM298.667 614.4h-85.333v-81.067h85.333v81.067zM298.667 448h-85.333v-81.067h85.333v81.067z" />
<glyph unicode="&#xe922;" glyph-name="ic_email" d="M887.467 797.867h-746.667c-51.2 0-89.6-38.4-93.867-85.333v0-529.067c0-51.2 42.667-89.6 93.867-89.6 0 0 0 0 0 0h746.667c51.2 0 93.867 38.4 93.867 85.333 0 0 0 0 0 0v533.333c-4.267 46.933-46.933 85.333-93.867 85.333 0 0 0 0 0 0zM887.467 622.933l-375.467-217.6-371.2 217.6v89.6l371.2-221.867 375.467 217.6v-85.333z" />
<glyph unicode="&#xe923;" glyph-name="ic_expand_less" d="M512 716.8l-469.333-435.2 110.933-102.4 358.4 332.8 358.4-332.8 110.933 102.4-469.333 435.2z" />
<glyph unicode="&#xe924;" glyph-name="ic_expand_more" d="M981.333 614.4l-110.933 102.4-358.4-332.8-358.4 332.8-110.933-102.4 469.333-435.2 469.333 435.2z" />
<glyph unicode="&#xe925;" glyph-name="ic_extension" d="M870.4 469.333h-68.267v179.2c0 51.2-38.4 89.6-89.6 89.6v0h-179.2v68.267c0 59.733-51.2 110.933-110.933 110.933s-110.933-51.2-110.933-110.933v0-68.267h-179.2c-51.2 0-89.6-38.4-89.6-89.6v0-170.667h64c68.267 0 123.733-51.2 123.733-119.467s-51.2-123.733-119.467-123.733h-68.267v-170.667c0-46.933 38.4-85.333 89.6-89.6h166.4v68.267c4.267 68.267 59.733 115.2 128 115.2 59.733-4.267 110.933-51.2 115.2-115.2v-64h170.667c51.2 0 89.6 38.4 89.6 89.6 0 0 0 0 0 0v179.2h68.267c59.733-4.267 115.2 38.4 119.467 102.4 4.267 59.733-38.4 115.2-102.4 119.467-4.267 0-8.533 0-12.8 0h-4.267z" />
<glyph unicode="&#xe926;" glyph-name="ic_format_list_bulleted" d="M110.933 516.267c-38.4-4.267-68.267-38.4-68.267-76.8s38.4-68.267 76.8-68.267c38.4 4.267 68.267 34.133 68.267 72.533-4.267 42.667-38.4 72.533-76.8 72.533 0 0 0 0 0 0v0zM110.933 802.133c-42.667 0-72.533-34.133-68.267-76.8s38.4-68.267 76.8-68.267c38.4 4.267 68.267 34.133 68.267 72.533-4.267 42.667-38.4 76.8-76.8 72.533 0 0 0 0 0 0v0zM110.933 221.867c-34.133-4.267-64-34.133-59.733-68.267s34.133-64 68.267-59.733c34.133 4.267 59.733 29.867 59.733 64-4.267 34.133-34.133 64-68.267 64zM264.533 106.667h716.8v98.133h-716.8v-98.133zM264.533 392.533h716.8v98.133h-716.8v-98.133zM264.533 776.533v-93.867h716.8v98.133l-716.8-4.267z" />
<glyph unicode="&#xe927;" glyph-name="ic_headset_mic" d="M512 917.333c-213.333 4.267-392.533-170.667-396.8-384 0 0 0 0 0 0v-298.667c0-72.533 55.467-128 128-128 0 0 4.267 0 4.267 0h132.267v341.333h-174.933v85.333c4.267 170.667 149.333 302.933 320 298.667 162.133-4.267 290.133-136.533 298.667-298.667v-85.333h-174.933v-341.333h174.933v-42.667h-311.467v-85.333h264.533c72.533 0 132.267 55.467 132.267 128 0 0 0 0 0 0v426.667c-4.267 213.333-179.2 388.267-396.8 384 0 0 0 0 0 0z" />
<glyph unicode="&#xe928;" glyph-name="ic_insert_comment" d="M836.267 853.333h-648.533c-42.667 0-81.067-38.4-81.067-81.067v0-486.4c0-42.667 38.4-81.067 81.067-81.067 0 0 0 0 0 0h567.467l162.133-162.133v729.6c0 42.667-38.4 81.067-81.067 81.067zM755.2 366.933h-486.4v81.067h486.4v-81.067zM755.2 486.4h-486.4v81.067h486.4v-81.067zM755.2 610.133h-486.4v81.067h486.4c0 0 0-81.067 0-81.067z" />
<glyph unicode="&#xe929;" glyph-name="ic_keyboard_arrow_left" d="M772.267 755.2l-320-307.2 324.267-307.2-98.133-93.867-426.667 401.067 422.4 405.333 98.133-98.133z" />
<glyph unicode="&#xe92a;" glyph-name="ic_keyboard_arrow_left1" d="M942.933 755.2l-320-307.2 324.267-307.2-98.133-93.867-426.667 401.067 422.4 405.333 98.133-98.133zM601.6 755.2l-320-307.2 324.267-307.2-98.133-93.867-426.667 401.067 422.4 405.333 98.133-98.133z" />
<glyph unicode="&#xe92b;" glyph-name="ic_keyboard_arrow_right" d="M349.867 853.333l422.4-405.333-422.4-405.333-98.133 93.867 324.267 307.2-324.267 311.467 98.133 98.133z" />
<glyph unicode="&#xe92c;" glyph-name="ic_keyboard_arrow_right1" d="M179.2 853.333l422.4-405.333-422.4-405.333-98.133 93.867 320 311.467-320 307.2 98.133 98.133zM520.533 853.333l422.4-405.333-422.4-405.333-98.133 93.867 324.267 307.2-324.267 311.467 98.133 98.133z" />
<glyph unicode="&#xe92d;" glyph-name="ic_live_help" d="M832 917.333h-640c-51.2 0-89.6-38.4-93.867-89.6v-627.2c0-51.2 42.667-89.6 93.867-89.6h183.467l136.533-132.267 136.533 132.267h183.467c51.2 0 89.6 38.4 89.6 89.6v627.2c4.267 51.2-38.4 89.6-89.6 89.6zM558.933 200.533h-93.867v89.6h89.6l4.267-89.6zM652.8 546.133l-42.667-42.667c-38.4-29.867-59.733-81.067-55.467-128h-89.6v29.867c0 46.933 17.067 93.867 55.467 128l55.467 55.467c17.067 17.067 25.6 38.4 25.6 64 0 51.2-42.667 89.6-93.867 89.6s-89.6-42.667-89.6-89.6h-89.6c0 102.4 81.067 183.467 183.467 183.467s183.467-81.067 183.467-183.467c0-38.4-12.8-76.8-42.667-106.667v0 0z" />
<glyph unicode="&#xe92e;" glyph-name="ic_location_on" d="M512 917.333c-174.933-8.533-307.2-153.6-302.933-328.533 0-247.467 302.933-610.133 302.933-610.133s302.933 362.667 302.933 610.133c8.533 174.933-128 320-302.933 328.533zM512 473.6c-64-4.267-123.733 42.667-128 106.667s42.667 123.733 106.667 128c64 4.267 119.467-42.667 128-106.667 0-4.267 0-4.267 0-8.533 4.267-64-42.667-119.467-106.667-119.467 0-4.267 0-4.267 0 0v0z" />
<glyph unicode="&#xe92f;" glyph-name="ic_lock_outline" d="M793.6 601.6h-46.933v89.6c0 128-106.667 234.667-234.667 234.667s-234.667-102.4-234.667-234.667v-89.6h-46.933c-51.2 0-93.867-38.4-93.867-89.6 0 0 0 0 0 0v0-448c0-51.2 42.667-89.6 93.867-89.6 0 0 0 0 0 0h563.2c51.2 0 93.867 38.4 93.867 89.6v452.267c0 46.933-42.667 89.6-93.867 85.333 0 0 0 0 0 0s0 0 0 0zM512 832c76.8 0 145.067-59.733 145.067-136.533v-89.6h-285.867v85.333h-4.267c0 81.067 68.267 140.8 145.067 140.8zM793.6 68.267h-563.2v448h563.2v-448zM512 200.533c51.2 4.267 85.333 42.667 85.333 93.867-4.267 51.2-42.667 85.333-93.867 85.333-46.933-4.267-85.333-42.667-85.333-89.6 0-51.2 42.667-89.6 93.867-89.6 0 0 0 0 0 0v0z" />
<glyph unicode="&#xe930;" glyph-name="ic_mic_black" d="M512 324.267c76.8 4.267 136.533 68.267 132.267 149.333v294.4c8.533 72.533-46.933 140.8-119.467 145.067s-140.8-46.933-145.067-119.467c0-8.533 0-17.067 0-25.6v-294.4c-4.267-76.8 55.467-145.067 132.267-149.333zM746.667 473.6c12.8-128-81.067-247.467-209.067-260.267s-247.467 81.067-260.267 209.067c0 17.067 0 34.133 0 51.2h-76.8c0-162.133 110.933-298.667 268.8-332.8v-162.133h85.333v162.133c157.867 29.867 268.8 170.667 264.533 328.533l-72.533 4.267z" />
<glyph unicode="&#xe931;" glyph-name="ic_note_add" d="M614.4 917.333h-401.067c-55.467 0-102.4-42.667-102.4-93.867 0 0 0 0 0 0v0-750.933c0-51.2 46.933-93.867 98.133-93.867h601.6c55.467 0 98.133 38.4 102.4 93.867v563.2l-298.667 281.6zM712.533 260.267h-149.333v-140.8h-102.4v140.8h-149.333v93.867h149.333v140.8h102.4v-140.8h149.333v-93.867zM563.2 588.8v256l277.333-256h-277.333z" />
<glyph unicode="&#xe932;" glyph-name="ic_notifications_on" d="M294.4 810.667l-68.267 59.733c-106.667-76.8-174.933-204.8-183.467-337.067h89.6c8.533 110.933 68.267 213.333 162.133 277.333zM891.733 533.333h89.6c-8.533 136.533-76.8 260.267-183.467 337.067l-64-59.733c89.6-64 149.333-166.4 157.867-277.333zM802.133 512c0 132.267-93.867 243.2-221.867 273.067v25.6c0 38.4-29.867 68.267-68.267 68.267s-68.267-29.867-68.267-68.267v-29.867c-128-25.6-221.867-140.8-221.867-273.067v-230.4l-89.6-85.333v-42.667h759.467v42.667l-89.6 85.333v234.667zM512 17.067c4.267 0 12.8 0 17.067 0 29.867 4.267 51.2 25.6 64 51.2 4.267 8.533 8.533 21.333 8.533 34.133h-179.2c4.267-46.933 42.667-85.333 89.6-85.333z" />
<glyph unicode="&#xe933;" glyph-name="ic_password" d="M785.067 605.867h-46.933v89.6c0 128-102.4 226.133-226.133 226.133s-226.133-102.4-226.133-226.133v-89.6h-46.933c-51.2 0-89.6-38.4-89.6-89.6v0-448c0-51.2 42.667-89.6 89.6-89.6 0 0 0 0 0 0h546.133c51.2 0 89.6 38.4 89.6 89.6v448c0 46.933-38.4 89.6-89.6 89.6v0 0zM512 200.533c-51.2 0-89.6 42.667-85.333 89.6s42.667 89.6 89.6 85.333c46.933 0 85.333-42.667 85.333-89.6 4.267-42.667-38.4-85.333-89.6-85.333 0 0 0 0 0 0v0zM652.8 605.867h-281.6v89.6c0 76.8 64 140.8 140.8 140.8s140.8-64 140.8-140.8v-89.6z" />
<glyph unicode="&#xe934;" glyph-name="ic_perm_contact_cal" d="M853.333 823.467h-46.933v93.867h-98.133v-93.867h-392.533v93.867h-98.133v-93.867h-46.933c-51.2 0-98.133-42.667-98.133-93.867 0 0 0 0 0 0v0-657.067c0-51.2 46.933-93.867 98.133-93.867 0 0 0 0 0 0h682.667c51.2 0 98.133 42.667 98.133 93.867 0 0 0 0 0 0v657.067c0 51.2-42.667 93.867-98.133 93.867 0 0 0 0 0 0zM512 682.667c76.8-4.267 136.533-68.267 132.267-145.067s-68.267-136.533-145.067-132.267c-76.8 0-132.267 59.733-132.267 136.533 0 81.067 64 140.8 145.067 140.8zM806.4 119.467h-588.8v46.933c0 93.867 196.267 145.067 294.4 145.067s294.4-51.2 294.4-145.067v-46.933z" />
<glyph unicode="&#xe935;" glyph-name="ic_person_add" d="M640 448c81.067 12.8 140.8 85.333 128 170.667s-85.333 140.8-170.667 128c-72.533-8.533-128-72.533-128-149.333 8.533-89.6 85.333-153.6 170.667-149.333zM256 520.533v110.933h-85.333v-110.933h-128v-72.533h128v-110.933h85.333v110.933h128v72.533h-128zM640 371.2c-115.2 0-341.333-51.2-341.333-149.333v-72.533h682.667v76.8c0 98.133-226.133 145.067-341.333 145.067z" />
<glyph unicode="&#xe936;" glyph-name="ic_poll" d="M827.733 853.333h-631.467c-51.2 0-89.6-38.4-89.6-89.6v0 0-631.467c0-51.2 38.4-89.6 89.6-89.6 0 0 0 0 0 0h631.467c51.2 0 89.6 38.4 89.6 89.6v0 631.467c0 46.933-38.4 89.6-89.6 89.6v0 0zM379.733 221.867h-93.867v315.733h89.6v-315.733zM558.933 221.867h-89.6v452.267h89.6c0 0 0-452.267 0-452.267zM738.133 221.867h-89.6v179.2h89.6v-179.2z" />
<glyph unicode="&#xe937;" glyph-name="ic_radio_button_off" d="M512 917.333c-260.267 0-469.333-209.067-469.333-469.333s209.067-469.333 469.333-469.333 469.333 209.067 469.333 469.333-209.067 469.333-469.333 469.333v0zM512 72.533c-209.067 0-375.467 166.4-375.467 375.467s166.4 375.467 375.467 375.467 375.467-166.4 375.467-375.467c0 0 0 0 0 0 0-209.067-166.4-375.467-375.467-375.467z" />
<glyph unicode="&#xe938;" glyph-name="ic_radio_button_on" d="M512 917.333c-260.267 0-469.333-209.067-469.333-469.333s209.067-469.333 469.333-469.333 469.333 209.067 469.333 469.333-209.067 469.333-469.333 469.333v0zM512 72.533c-209.067 0-375.467 166.4-375.467 375.467s166.4 375.467 375.467 375.467 375.467-166.4 375.467-375.467c0 0 0 0 0 0 0-209.067-166.4-375.467-375.467-375.467zM746.667 448c0-129.603-105.064-234.667-234.667-234.667s-234.667 105.064-234.667 234.667c0 129.603 105.064 234.667 234.667 234.667s234.667-105.064 234.667-234.667z" />
<glyph unicode="&#xe939;" glyph-name="ic_refresh" d="M797.867 733.867c-157.867 157.867-413.867 157.867-571.733 0s-157.867-413.867 0-571.733 413.867-157.867 571.733 0c51.2 51.2 89.6 115.2 106.667 183.467h-106.667c-55.467-157.867-226.133-243.2-388.267-192-157.867 55.467-243.2 226.133-192 388.267s226.133 243.2 388.267 192c42.667-17.067 85.333-38.4 115.2-72.533l-162.133-162.133h354.133v354.133l-115.2-119.467z" />
<glyph unicode="&#xe93a;" glyph-name="ic_save" d="M738.133 853.333h-541.867c-51.2 0-89.6-38.4-89.6-89.6v-631.467c0-51.2 38.4-89.6 89.6-89.6h631.467c51.2 0 89.6 38.4 89.6 89.6v541.867l-179.2 179.2zM512 132.267c-72.533 0-136.533 59.733-132.267 136.533 0 72.533 59.733 136.533 136.533 132.267 72.533 0 132.267-59.733 132.267-136.533 0-72.533-59.733-132.267-136.533-132.267 0 0 0 0 0 0zM648.533 584.533h-452.267v179.2h452.267v-179.2z" />
<glyph unicode="&#xe93b;" glyph-name="ic_search" d="M686.933 341.333h-38.4l-12.8 12.8c106.667 128 93.867 315.733-34.133 426.667s-315.733 93.867-422.4-34.133-93.867-315.733 34.133-426.667c110.933-98.133 281.6-98.133 392.533 0l12.8-12.8v-38.4l230.4-230.4 68.267 68.267-230.4 234.667zM409.6 341.333c-115.2 0-209.067 93.867-209.067 209.067s93.867 209.067 209.067 209.067c115.2 0 209.067-93.867 209.067-209.067v0c0-115.2-93.867-209.067-209.067-209.067v0z" />
<glyph unicode="&#xe93c;" glyph-name="ic_sync" d="M512 789.333v128l-179.2-170.667 179.2-170.667v128c145.067 4.267 264.533-110.933 268.8-256 0 0 0 0 0 0 0-42.667-8.533-81.067-29.867-119.467l64-64c34.133 55.467 55.467 115.2 55.467 183.467-4.267 192-166.4 345.6-358.4 341.333zM635.733 204.8l-123.733 115.2zM512 320v-128c-145.067-4.267-264.533 110.933-268.8 256 0 0 0 0 0 0 0 42.667 8.533 81.067 29.867 119.467l-64 64c-34.133-55.467-55.467-119.467-55.467-183.467 4.267-192 166.4-345.6 358.4-341.333v-128l179.2 170.667-55.467 51.2z" />
<glyph unicode="&#xe93d;" glyph-name="ic_thumb_up" d="M106.667 85.333h149.333v435.2h-149.333v-435.2zM917.333 482.133c0 38.4-34.133 72.533-72.533 72.533 0 0 0 0 0 0h-234.667l34.133 166.4c0 4.267 0 8.533 0 12.8 0 12.8-4.267 29.867-17.067 38.4l-38.4 38.4-238.933-238.933c-12.8-12.8-21.333-29.867-21.333-51.2v-362.667c0-38.4 34.133-72.533 72.533-72.533 0 0 0 0 0 0h332.8c29.867 0 55.467 17.067 68.267 42.667l110.933 256c4.267 8.533 4.267 17.067 4.267 25.6v72.533z" />
<glyph unicode="&#xe93e;" glyph-name="ic_timer" d="M640 921.6h-273.067v-89.6h273.067v89.6zM456.533 337.067h93.867v268.8h-93.867v-268.8zM827.733 635.733l64 64c-21.333 21.333-42.667 42.667-64 64l-64-64c-72.533 55.467-162.133 89.6-256 89.6-221.867-4.267-401.067-192-396.8-413.867s192-401.067 413.867-396.8c221.867 4.267 396.8 183.467 396.8 405.333 0 89.6-34.133 179.2-93.867 251.733v0zM503.467 64c-174.933 4.267-311.467 149.333-307.2 320s145.067 311.467 320 311.467c170.667-4.267 307.2-145.067 307.2-315.733 0-174.933-145.067-315.733-320-315.733z" />
<glyph unicode="&#xe93f;" glyph-name="ic_tonality" d="M512 917.333c-260.267 0-469.333-209.067-469.333-469.333s209.067-469.333 469.333-469.333 469.333 209.067 469.333 469.333-209.067 469.333-469.333 469.333zM465.067 76.8c-204.8 25.6-349.867 213.333-324.267 418.133 21.333 170.667 153.6 307.2 324.267 324.267v-742.4zM558.933 819.2c46.933-4.267 93.867-21.333 132.267-42.667h-132.267v42.667c0 0 0 0 0 0zM558.933 682.667h247.467c12.8-12.8 21.333-29.867 34.133-46.933h-277.333v46.933zM558.933 541.867h315.733c4.267-17.067 8.533-29.867 8.533-46.933h-324.267v46.933zM558.933 76.8v42.667h132.267c-38.4-25.6-85.333-38.4-132.267-42.667v0zM806.4 213.333h-247.467v46.933h277.333c-8.533-17.067-21.333-34.133-29.867-46.933v0zM874.667 354.133h-315.733v46.933h324.267c0-17.067-4.267-29.867-8.533-46.933v0z" />
<glyph unicode="&#xe940;" glyph-name="ic_user_id" d="M512 853.333c-110.933 0-204.8-89.6-204.8-204.8s93.867-200.533 204.8-200.533 204.8 89.6 204.8 200.533-93.867 204.8-204.8 204.8v0 0zM512 345.6c-136.533 0-405.333-68.267-405.333-200.533v-102.4h810.667v102.4c0 132.267-268.8 200.533-405.333 200.533z" />
<glyph unicode="&#xe941;" glyph-name="ic_user_info" d="M836.267 520.533h-85.333v-51.2h85.333c29.867 0 55.467-25.6 55.467-55.467v0-149.333c0-29.867-25.6-55.467-55.467-55.467 0 0 0 0 0 0h-25.6v-230.4h51.2v179.2c46.933 12.8 76.8 55.467 76.8 102.4v149.333c4.267 64-42.667 110.933-102.4 110.933zM187.733 469.333h85.333v51.2h-85.333c-59.733 0-106.667-46.933-106.667-106.667v-149.333c0-46.933 29.867-89.6 76.8-102.4v-179.2h55.467v230.4h-25.6c-29.867 0-55.467 25.6-55.467 55.467v0 149.333c4.267 25.6 25.6 46.933 55.467 51.2zM695.467 520.533c0 12.8-4.267 21.333-8.533 34.133-8.533 21.333-21.333 38.4-42.667 51.2-17.067 8.533-34.133 17.067-55.467 17.067h-157.867c-17.067-4.267-34.133-8.533-51.2-17.067-21.333-12.8-34.133-29.867-42.667-51.2-4.267-12.8-8.533-21.333-8.533-34.133 0 0 0-4.267 0-4.267v-204.8c0-12.8 4.267-25.6 8.533-38.4 8.533-21.333 21.333-38.4 42.667-51.2h4.267c8.533-4.267 17.067-8.533 25.6-12.8v-226.133h51.2v273.067h-25.6c-29.867 0-55.467 25.6-55.467 55.467v204.8c0 29.867 25.6 55.467 55.467 51.2h157.867c29.867 0 55.467-25.6 55.467-55.467v0-204.8c0-29.867-25.6-55.467-55.467-55.467h-25.6v-273.067h51.2v226.133c8.533 4.267 17.067 4.267 25.6 12.8h4.267c17.067 12.8 34.133 29.867 42.667 51.2 4.267 12.8 8.533 25.6 8.533 38.4v204.8c0 0 0 4.267-4.267 8.533v0 0zM512 665.6c68.267 0 123.733 55.467 123.733 123.733s-55.467 123.733-123.733 123.733c-68.267 0-123.733-55.467-123.733-123.733s55.467-123.733 123.733-123.733c0 0 0 0 0 0v0zM512 861.867c38.4 0 72.533-34.133 68.267-72.533 0-38.4-34.133-72.533-72.533-68.267-38.4 0-68.267 29.867-68.267 68.267s29.867 72.533 72.533 72.533c0 0 0 0 0 0v0zM797.867 567.467c68.267 0 123.733 55.467 123.733 123.733s-55.467 123.733-123.733 123.733-123.733-55.467-123.733-123.733v0c0-68.267 55.467-123.733 123.733-123.733v0zM797.867 759.467c38.4 0 72.533-34.133 68.267-72.533 0-38.4-34.133-72.533-72.533-68.267-38.4 0-68.267 29.867-68.267 72.533 0 38.4 34.133 68.267 72.533 68.267 0 0 0 0 0 0v0zM226.133 567.467c68.267 0 123.733 55.467 123.733 123.733s-55.467 123.733-123.733 123.733c-68.267 0-123.733-55.467-123.733-123.733s55.467-123.733 123.733-123.733c0-4.267 0 0 0 0v0zM226.133 759.467c38.4 0 72.533-29.867 72.533-68.267 0-42.667-34.133-72.533-72.533-72.533s-72.533 29.867-72.533 72.533c0 38.4 34.133 68.267 72.533 68.267 0 0 0 0 0 0v0z" />
<glyph unicode="&#xe942;" glyph-name="ic_write" d="M661.333 110.933c0-12.8-8.533-21.333-21.333-21.333h-520.533c-12.8 0-21.333 8.533-21.333 21.333v550.4l157.867 128v-140.8h-81.067v-51.2h132.267v209.067h332.8c12.8 0 21.333-8.533 21.333-21.333v-179.2l51.2 51.2v128c0 38.4-34.133 72.533-72.533 72.533 0 0 0 0 0 0h-375.467c-8.533-4.267-12.8-4.267-17.067-8.533l-196.267-157.867c-4.267-4.267-8.533-8.533-8.533-17.067v-563.2c0-38.4 34.133-72.533 72.533-68.267h524.8c38.4 0 72.533 29.867 72.533 68.267v115.2l-51.2-17.067v-98.133zM494.933 439.467c4.267 8.533 8.533 12.8 17.067 21.333l25.6 25.6h-341.333c-12.8 0-25.6-8.533-29.867-21.333 0-12.8 8.533-25.6 21.333-29.867 4.267 0 4.267 0 8.533 0h294.4l4.267 4.267zM196.267 260.267c-12.8 0-25.6-12.8-21.333-29.867 0-12.8 8.533-21.333 21.333-21.333h221.867l-4.267 12.8c0 8.533 0 17.067 0 21.333l4.267 12.8h-221.867zM465.067 371.2h-268.8c-12.8 0-25.6-8.533-25.6-25.6 0-12.8 8.533-25.6 21.333-25.6v0h251.733l21.333 51.2zM942.933 516.267l38.4 34.133-153.6 145.067-285.867-268.8c-4.267-4.267-4.267-4.267-4.267-8.533l-68.267-174.933c-4.267-8.533 0-21.333 4.267-25.6s12.8-8.533 17.067-8.533v0 0l4.267-12.8v12.8l4.267-12.8v8.533l4.267-8.533-4.267 12.8h4.267l179.2 59.733c4.267 0 8.533 4.267 8.533 4.267l213.333 204.8-38.4 34.133-179.2-170.667-81.067 76.8 217.6 204.8 119.467-106.667zM652.8 311.467l-81.067-25.6-21.333 17.067 29.867 76.8 72.533-68.267z" />
<glyph unicode="&#xe943;" glyph-name="info" d="M631.467 388.267c17.067 25.6 25.6 55.467 25.6 85.333 0 81.067-64 149.333-145.067 149.333s-145.067-68.267-145.067-149.333c0-29.867 8.533-59.733 25.6-85.333 25.6-29.867 68.267-42.667 81.067-93.867 4.267-12.8 17.067-21.333 34.133-21.333h8.533c12.8-4.267 29.867 4.267 34.133 21.333 21.333 38.4 46.933 68.267 81.067 93.867zM571.733 396.8c-17.067-12.8-29.867-25.6-42.667-42.667v64c12.8 4.267 17.067 17.067 12.8 25.6l21.333 21.333c8.533 4.267 12.8 21.333 8.533 29.867s-21.333 12.8-29.867 8.533c-4.267 0-4.267-4.267-4.267-4.267l-17.067-17.067c-4.267 0-4.267 0-8.533 0s-4.267 0-8.533 0l-17.067 17.067c-8.533 8.533-21.333 8.533-29.867 0s-8.533-21.333 0-29.867l21.333-25.6c0-4.267 0-12.8 4.267-17.067l4.267-4.267v-59.733c-12.8 12.8-25.6 25.6-38.4 38.4-8.533 4.267-12.8 12.8-21.333 21.333-12.8 17.067-21.333 38.4-17.067 59.733h4.267c0 55.467 42.667 102.4 102.4 106.667 55.467 0 102.4-46.933 98.133-106.667 0-21.333-4.267-42.667-17.067-59.733-8.533-12.8-17.067-21.333-25.6-25.6zM947.2 379.733c0 4.267-4.267 4.267-4.267 8.533l-93.867 110.933c-4.267 21.333-8.533 42.667-8.533 64 42.667 200.533-93.867 273.067-98.133 277.333-162.133 98.133-366.933 98.133-529.067-4.267-256-187.733-85.333-486.4-85.333-490.667 34.133-55.467 55.467-115.2 72.533-174.933 0-64-4.267-123.733-12.8-187.733h51.2c12.8 64 17.067 128 12.8 192 0 0 0 4.267 0 4.267-17.067 68.267-42.667 136.533-76.8 196.267-8.533 17.067-140.8 260.267 76.8 418.133 145.067 89.6 328.533 89.6 473.6 0 0-4.267 98.133-59.733 64-221.867 0 0 0-4.267 0-4.267 0-34.133 4.267-64 17.067-98.133v-4.267l89.6-106.667h-4.267l-59.733-12.8c-8.533 0-12.8-4.267-17.067-12.8-12.8-21.333-21.333-46.933-25.6-72.533h-59.733c-12.8-4.267-21.333-17.067-17.067-29.867 4.267-8.533 8.533-17.067 17.067-17.067h55.467c0-21.333 4.267-38.4 4.267-59.733 0 0 0-4.267 0-4.267 8.533-17.067 8.533-34.133 0-51.2-12.8-4.267-29.867-8.533-42.667-8.533-46.933 0-89.6 8.533-136.533 17.067-8.533 0-17.067 0-25.6-4.267-8.533-8.533-25.6-38.4-34.133-123.733h51.2c4.267 25.6 8.533 51.2 17.067 72.533 42.667-8.533 85.333-12.8 132.267-17.067 21.333 0 46.933 4.267 68.267 12.8l4.267 4.267c29.867 25.6 38.4 68.267 21.333 106.667-4.267 21.333-4.267 46.933-4.267 72.533 4.267 21.333 8.533 42.667 17.067 64l42.667 8.533c17.067 0 34.133 8.533 42.667 25.6s12.8 34.133 4.267 51.2z" />
<glyph unicode="&#xe944;" glyph-name="legal" d="M106.667 149.333h298.667c17.067 0 25.6 17.067 25.6 29.867s-12.8 21.333-25.6 25.6h-298.667c-17.067 0-25.6-17.067-25.6-29.867s8.533-25.6 25.6-25.6zM320 281.6c12.8-12.8 29.867-12.8 38.4 0 0 0 0 0 0 0v0l55.467 55.467c4.267 4.267 8.533 8.533 8.533 17.067l4.267 46.933 192 192 46.933 8.533c4.267 0 12.8 4.267 17.067 8.533l51.2 51.2c12.8 12.8 12.8 29.867 0 38.4 0 0 0 0 0 0v0l-192 196.267c-12.8 12.8-29.867 12.8-38.4 0l-51.2-51.2c-4.267-4.267-8.533-8.533-8.533-17.067l-8.533-46.933-192-196.267-46.933-4.267c-4.267 0-12.8-4.267-17.067-8.533l-55.467-55.467c-12.8-12.8-12.8-29.867 0-38.4l196.267-196.267zM494.933 806.4l29.867 29.867 153.6-153.6-29.867-29.867-38.4-4.267-123.733 123.733 8.533 34.133zM460.8 721.067l106.667-102.4-162.133-162.133-106.667 106.667 162.133 157.867zM213.333 524.8l38.4 8.533 123.733-123.733-4.267-38.4-29.867-29.867-153.6 153.6 25.6 29.867zM951.467 230.4l-4.267 4.267-328.533 290.133-42.667-38.4 332.8-294.4c17.067-17.067 21.333-46.933 4.267-64 0 0 0 0 0 0l-12.8-12.8c-17.067-17.067-46.933-17.067-68.267 0 0 0 0 0 0 0l-290.133 332.8-38.4-38.4 290.133-328.533c38.4-42.667 102.4-46.933 140.8-8.533l12.8 12.8c42.667 38.4 46.933 102.4 4.267 145.067 0-4.267 0-4.267 0 0zM435.2 106.667h-362.667c-17.067 0-29.867-12.8-29.867-29.867v0-85.333h55.467v55.467h307.2v-55.467h55.467v85.333c0 17.067-12.8 29.867-25.6 29.867z" />
<glyph unicode="&#xe945;" glyph-name="map_search" d="M981.333 106.667l-128 277.333c-4.267 4.267-8.533 8.533-12.8 12.8l-153.6 68.267-4.267-12.8-8.533-21.333-4.267-8.533 149.333-68.267 93.867-213.333-157.867 72.533-55.467 140.8c-4.267 12.8-17.067 17.067-29.867 12.8s-17.067-17.067-12.8-29.867l51.2-132.267-170.667-93.867v98.133l-17.067-4.267c-4.267 0-12.8 0-17.067 0l-17.067 4.267v-102.4l-170.667 93.867 51.2 132.267c4.267 4.267 4.267 12.8 0 17.067s-8.533 8.533-12.8 12.8c-12.8 4.267-25.6 0-29.867-12.8l-51.2-140.8-157.867-72.533 98.133 213.333 149.333 68.267-4.267 8.533-17.067 25.6-4.267 8.533-153.6-68.267c-8.533 0-12.8-4.267-12.8-12.8l-128-273.067c-4.267-8.533-4.267-21.333 4.267-25.6 8.533-8.533 17.067-8.533 25.6-4.267l213.333 93.867 209.067-119.467 8.533-4.267h12.8l217.6 123.733 213.333-93.867c8.533-8.533 25.6-8.533 34.133 0s8.533 21.333 0 29.867zM972.8 102.4v0zM512 243.2c8.533 0 17.067 4.267 21.333 12.8 29.867 51.2 174.933 302.933 174.933 401.067 0 106.667-89.6 196.267-196.267 196.267s-196.267-89.6-196.267-196.267c0 0 0 0 0 0 0-98.133 157.867-366.933 174.933-401.067 4.267-8.533 12.8-12.8 21.333-12.8v0 0zM362.667 652.8c0 81.067 68.267 149.333 149.333 149.333s149.333-68.267 149.333-149.333c0-55.467-76.8-213.333-149.333-341.333-68.267 128-145.067 281.6-149.333 341.333v0 0zM622.933 652.8c0 64-51.2 110.933-115.2 110.933s-110.933-51.2-106.667-110.933c0-64 51.2-110.933 110.933-110.933 64 0 115.2 51.2 110.933 110.933 4.267 0 4.267 0 0 0v0 0zM448 652.8c0 38.4 29.867 64 68.267 64s64-29.867 64-68.267c0-34.133-29.867-64-64-64-38.4 4.267-68.267 34.133-68.267 68.267v0 0z" />
<glyph unicode="&#xe946;" glyph-name="mapservice" d="M512 917.333c-260.267 0-469.333-209.067-469.333-469.333s209.067-469.333 469.333-469.333 469.333 209.067 469.333 469.333v0c0 260.267-209.067 469.333-469.333 469.333zM925.867 448c0-226.133-183.467-413.867-413.867-413.867s-413.867 183.467-413.867 413.867c0 226.133 183.467 413.867 413.867 413.867v0c230.4 0 413.867-187.733 413.867-413.867v0zM512 738.133c21.333 0 34.133 17.067 34.133 38.4s-17.067 38.4-38.4 34.133c-21.333 0-34.133-17.067-34.133-38.4v0c4.267-17.067 17.067-34.133 38.4-34.133v0 0zM512 157.867c-21.333 0-34.133-17.067-34.133-38.4s17.067-38.4 38.4-38.4c21.333 0 34.133 17.067 34.133 38.4s-17.067 38.4-38.4 38.4c0 0 0 0 0 0v0 0zM836.267 409.6c21.333 0 34.133 17.067 34.133 38.4s-17.067 34.133-38.4 34.133c-21.333 0-34.133-17.067-34.133-34.133v0c4.267-21.333 21.333-38.4 38.4-38.4v0 0 0zM187.733 482.133c-21.333 0-38.4-17.067-38.4-38.4s17.067-34.133 38.4-34.133c21.333 0 34.133 17.067 34.133 34.133v0c0 25.6-17.067 38.4-34.133 38.4 0 0 0 0 0 0v0zM729.6 695.467l-281.6-183.467-192-281.6c0-12.8 0-25.6 8.533-34.133 4.267-4.267 8.533-4.267 17.067-4.267 4.267 0 8.533 0 12.8 4.267l277.333 183.467 192 285.867c8.533 12.8 4.267 25.6-8.533 34.133-4.267 4.267-17.067 4.267-25.6-4.267v0 0zM520.533 405.333l-153.6-102.4 102.4 153.6 51.2-51.2zM503.467 490.667l153.6 102.4-102.4-153.6-51.2 51.2z" />
<glyph unicode="&#xe947;" glyph-name="mic" d="M763.733 388.267v-8.533c0-123.733-98.133-221.867-221.867-221.867h-55.467c-123.733 0-221.867 98.133-221.867 221.867v8.533h-51.2v-8.533c0-149.333 119.467-268.8 268.8-268.8h4.267v-85.333h-98.133c-12.8 0-25.6-8.533-25.6-25.6s12.8-21.333 25.6-21.333h247.467c12.8 0 25.6 8.533 25.6 25.6s-8.533 25.6-25.6 25.6v0h-102.4v85.333h4.267c149.333 0 268.8 119.467 268.8 268.8v8.533h-42.667zM499.2 213.333h29.867c98.133 0 174.933 76.8 174.933 174.933v354.133c0 98.133-76.8 174.933-174.933 174.933h-29.867c-98.133 0-174.933-81.067-174.933-174.933v-349.867c0-98.133 76.8-174.933 174.933-179.2zM371.2 503.467h89.6c12.8 0 25.6 8.533 25.6 25.6 0 12.8-8.533 25.6-25.6 25.6v0h-89.6v46.933h89.6c12.8 0 25.6 8.533 25.6 25.6 0 12.8-8.533 25.6-25.6 25.6h-89.6v46.933h89.6c12.8 0 25.6 8.533 25.6 25.6 0 12.8-8.533 25.6-25.6 25.6h-89.6c4.267 68.267 59.733 123.733 128 123.733h29.867c68.267 0 123.733-55.467 128-123.733h-76.8c-17.067-4.267-25.6-12.8-25.6-29.867 0-12.8 8.533-25.6 25.6-25.6h76.8v-51.2h-76.8c-12.8 0-25.6-8.533-25.6-25.6 0-12.8 8.533-25.6 25.6-25.6h76.8v-51.2h-76.8c-12.8 0-25.6-8.533-25.6-25.6 0-12.8 8.533-25.6 25.6-25.6v0h76.8v-110.933c0-72.533-55.467-128-128-128h-29.867c-72.533 0-128 55.467-128 128 0 12.8 0 123.733 0 123.733z" />
<glyph unicode="&#xe948;" glyph-name="news" d="M610.133 183.467h247.467v277.333h-247.467v-277.333zM802.133 405.333v-166.4h-136.533v166.4h136.533zM337.067 460.8c-17.067 0-25.6-17.067-25.6-29.867s12.8-21.333 25.6-25.6h187.733c17.067 0 25.6 17.067 25.6 29.867s-12.8 21.333-25.6 25.6h-187.733zM337.067 294.4h187.733c17.067 0 29.867 12.8 29.867 29.867s-12.8 29.867-29.867 29.867c0 0 0 0 0 0h-187.733c-17.067 0-29.867-12.8-29.867-29.867s12.8-29.867 29.867-29.867zM529.067 238.933h-192c-17.067 0-25.6-17.067-25.6-29.867s12.8-21.333 25.6-25.6h187.733c17.067 0 25.6 17.067 25.6 29.867 0 17.067-8.533 25.6-21.333 25.6zM337.067 541.867h494.933c17.067 0 29.867 8.533 29.867 25.6s-8.533 29.867-25.6 29.867c-4.267 0-4.267 0-8.533 0h-490.667c-17.067 0-25.6-17.067-25.6-29.867 4.267-12.8 12.8-21.333 25.6-25.6zM337.067 652.8h494.933c17.067 0 29.867 8.533 29.867 25.6s-8.533 29.867-25.6 29.867c-4.267 0-4.267 0-8.533 0h-490.667c-17.067 0-25.6-17.067-25.6-29.867 4.267-12.8 12.8-21.333 25.6-25.6zM187.733 823.467v-652.8c0-25.6-21.333-46.933-46.933-46.933v0c-25.6 4.267-42.667 25.6-42.667 51.2v520.533h-55.467v-516.267c0-55.467 46.933-102.4 102.4-102.4h729.6c59.733 0 106.667 42.667 106.667 102.4 0 0 0 4.267 0 4.267v640h-793.6zM925.867 772.267v-593.067c0-29.867-21.333-51.2-51.2-51.2h-640c4.267 8.533 8.533 17.067 12.8 29.867 0 8.533 0 17.067 0 21.333v593.067h678.4z" />
<glyph unicode="&#xe949;" glyph-name="popupzone" d="M614.4 115.2h-204.8c-12.8 0-21.333-8.533-21.333-21.333s8.533-21.333 21.333-21.333h204.8c12.8 0 21.333 8.533 21.333 21.333 0 8.533-8.533 21.333-21.333 21.333zM563.2 25.6h-102.4c-12.8 0-21.333-8.533-21.333-21.333s8.533-21.333 21.333-21.333h102.4c12.8 0 21.333 8.533 21.333 21.333 0 8.533-8.533 21.333-21.333 21.333v0zM512 763.733c-149.333 0-273.067-123.733-273.067-273.067v0c-4.267-55.467 17.067-110.933 51.2-157.867 51.2-55.467 102.4-81.067 110.933-174.933h226.133c8.533 93.867 59.733 119.467 110.933 174.933 34.133 42.667 55.467 102.4 51.2 157.867-4.267 153.6-123.733 273.067-277.333 273.067 0 0 0 0 0 0v0zM699.733 366.933c-8.533-8.533-21.333-21.333-29.867-29.867-42.667-34.133-72.533-76.8-85.333-128h-46.933v187.733l68.267 72.533c8.533 8.533 8.533 21.333 0 34.133-8.533 8.533-21.333 8.533-29.867 0 0 0 0 0 0 0v0l-64-68.267-64 64c-8.533 8.533-21.333 8.533-29.867 0 0 0 0 0 0 0v0c-8.533-8.533-8.533-21.333 0-34.133l72.533-76.8v-183.467h-51.2c-12.8 51.2-42.667 93.867-85.333 128-8.533 8.533-21.333 17.067-29.867 29.867-25.6 38.4-42.667 81.067-38.4 128 0 128 98.133 230.4 226.133 230.4s226.133-102.4 226.133-226.133v0c4.267-46.933-8.533-93.867-38.4-128v0 0zM512 810.667c12.8 0 21.333 8.533 21.333 21.333 0 0 0 0 0 0v0 64c0 12.8-8.533 21.333-21.333 21.333s-21.333-8.533-21.333-21.333v-59.733c0-12.8 8.533-25.6 21.333-25.6 0 0 0 0 0 0zM849.067 768c-8.533 8.533-21.333 8.533-29.867 0v0l-51.2-46.933c-8.533-8.533-8.533-21.333 0-34.133 4.267-4.267 8.533-8.533 17.067-8.533 4.267 0 12.8 4.267 17.067 8.533l46.933 46.933c8.533 12.8 8.533 29.867 0 34.133v0 0zM256 691.2c8.533 8.533 8.533 21.333 0 34.133l-46.933 46.933c-8.533 8.533-21.333 8.533-29.867 0 0 0 0 0 0 0v0c-8.533-8.533-8.533-25.6 0-34.133l46.933-46.933c8.533-8.533 21.333-8.533 29.867 0 0 0 0 0 0 0v0z" />
<glyph unicode="&#xe94a;" glyph-name="report" d="M904.533 836.267c0 12.8-12.8 25.6-25.6 25.6h-115.2v29.867c0 17.067-12.8 25.6-25.6 25.6s-25.6-12.8-25.6-25.6v-25.6h-55.467v25.6c-8.533 12.8-17.067 25.6-34.133 25.6s-25.6-12.8-25.6-25.6v-25.6h-55.467v25.6c0 12.8-12.8 25.6-29.867 25.6s-25.6-12.8-25.6-25.6v-25.6h-55.467v25.6c0 12.8-12.8 25.6-29.867 25.6-12.8 0-25.6-12.8-25.6-25.6v-25.6h-55.467v25.6c0 12.8-12.8 25.6-25.6 25.6-17.067 0-29.867-12.8-29.867-25.6v-25.6h-115.2c-17.067 0-25.6-12.8-25.6-25.6 0 0 0 0 0 0v0-832c0-12.8 12.8-25.6 25.6-25.6h516.267l217.6 213.333 12.8 12.8v12.8c0 0 0 4.267 0 4.267v610.133h8.533zM179.2 810.667h89.6v-25.6c0-17.067 12.8-25.6 25.6-25.6 17.067 0 25.6 12.8 25.6 25.6v25.6h51.2v-25.6c0-17.067 12.8-25.6 25.6-25.6 17.067 0 25.6 12.8 25.6 25.6v25.6h55.467v-25.6c0-17.067 12.8-25.6 25.6-25.6 17.067 0 25.6 12.8 25.6 25.6v25.6h68.267v-25.6c0-17.067 12.8-25.6 25.6-25.6 17.067 0 25.6 12.8 25.6 25.6v25.6h55.467v-25.6c0-17.067 12.8-25.6 25.6-25.6s25.6 12.8 25.6 25.6v25.6h89.6v-563.2h-192c-12.8 0-25.6-12.8-25.6-25.6v-187.733h-452.267l4.267 776.533zM682.667 68.267v123.733h128l-128-123.733zM256 593.067h512c12.8 0 25.6 12.8 29.867 25.6 0 12.8-12.8 25.6-25.6 29.867h-512c-17.067 0-25.6-12.8-25.6-29.867 0-12.8 8.533-21.333 21.333-25.6v0 0zM256 460.8h512c12.8 0 25.6 12.8 25.6 25.6s-12.8 25.6-25.6 25.6h-507.733c-12.8 0-25.6-12.8-25.6-25.6s8.533-25.6 21.333-25.6v0 0zM256 324.267h512c12.8 0 25.6 12.8 25.6 25.6s-12.8 25.6-25.6 25.6h-507.733c-12.8 0-25.6-12.8-25.6-25.6s8.533-25.6 21.333-25.6v0 0zM507.733 247.467h-247.467c-17.067 0-29.867-12.8-29.867-25.6s12.8-29.867 25.6-29.867h251.733c12.8 0 25.6 12.8 25.6 25.6 4.267 17.067-8.533 25.6-25.6 29.867v0 0 0z" />
<glyph unicode="&#xe94b;" glyph-name="system" d="M823.467 209.067c0-16.495-13.372-29.867-29.867-29.867s-29.867 13.372-29.867 29.867c0 16.495 13.372 29.867 29.867 29.867s29.867-13.372 29.867-29.867zM512 119.467h-256c-12.8 0-25.6-8.533-25.6-17.067 0-12.8 8.533-25.6 17.067-25.6 4.267 0 8.533 0 12.8 0h251.733c12.8-4.267 25.6 0 29.867 12.8s0 25.6-12.8 29.867c-8.533 0-12.8 0-17.067 0zM887.467 823.467h-192c-51.2 0-89.6-38.4-89.6-89.6v-34.133h42.667v34.133c0 25.6 17.067 42.667 42.667 42.667h192c25.6 0 46.933-17.067 46.933-42.667 0 0 0 0 0 0v0-571.733c0-21.333-21.333-42.667-42.667-42.667h-273.067c17.067-29.867 46.933-46.933 76.8-46.933h192c51.2 0 89.6 38.4 89.6 89.6v571.733c4.267 46.933-34.133 89.6-85.333 89.6zM857.6 678.4c12.8 0 21.333 12.8 21.333 25.6s-12.8 21.333-25.6 21.333h-115.2c-12.8 0-25.6-8.533-25.6-21.333s8.533-25.6 21.333-25.6c0 0 4.267 0 4.267 0h119.467zM725.333 256v298.667c0 51.2-38.4 89.6-89.6 89.6h-499.2c-51.2 0-89.6-38.4-89.6-89.6v0-298.667c0-51.2 38.4-89.6 89.6-89.6 0 0 0 0 0 0h499.2c51.2 4.267 89.6 42.667 89.6 89.6zM93.867 256v298.667c0 21.333 21.333 42.667 42.667 42.667h503.467c25.6 0 42.667-17.067 42.667-42.667v-298.667c0-25.6-17.067-42.667-42.667-42.667h-503.467c-25.6 4.267-42.667 21.333-42.667 42.667v0z" />
<glyph unicode="&#xe94c;" glyph-name="tour_report" d="M763.733 516.267h-499.2c-12.8 0-25.6 8.533-25.6 21.333s8.533 25.6 21.333 25.6h503.467c12.8 0 25.6-8.533 25.6-21.333s-8.533-25.6-25.6-25.6v0zM708.267 614.4h-392.533c-12.8 0-25.6 8.533-25.6 21.333 0 17.067 8.533 25.6 21.333 29.867h396.8c12.8 0 25.6-8.533 25.6-21.333 4.267-17.067-8.533-29.867-25.6-29.867v0zM665.6 712.533h-307.2c-17.067 0-25.6 8.533-29.867 25.6 0 12.8 8.533 25.6 21.333 25.6h315.733c12.8 0 25.6-8.533 25.6-25.6 0 0 0 0 0 0 4.267-12.8-8.533-25.6-25.6-25.6 4.267 0 4.267 0 0 0v0 0zM981.333 448c0 0 0 4.267 0 4.267l-170.667 298.667c-8.533 12.8-21.333 17.067-34.133 12.8s-17.067-21.333-12.8-34.133c0 0 0 0 0 0v0l149.333-264.533h-311.467c0-4.267 0-8.533 0-8.533-4.267-46.933-46.933-85.333-93.867-81.067-42.667 4.267-81.067 38.4-81.067 81.067 0 4.267 0 8.533 0 8.533h-311.467l149.333 264.533c4.267 12.8 0 25.6-8.533 34.133 0 0 0 0 0 0v0c-12.8 8.533-29.867 0-34.133-8.533l-170.667-298.667c0 0 0-4.267 0-4.267 0-4.267 0-4.267 0-8.533v-285.867c0-12.8 12.8-25.6 25.6-25.6 0 0 0 0 0 0h887.467c12.8 0 25.6 8.533 25.6 25.6 0 0 0 0 0 0v0 285.867c-8.533 0-8.533 0-8.533 4.267v0zM930.133 174.933h-832v238.933h281.6c29.867-76.8 110.933-110.933 187.733-85.333 38.4 12.8 68.267 46.933 85.333 85.333h281.6l-4.267-238.933z" />
<glyph unicode="&#xe94d;" glyph-name="trend_report" d="M860.625 844.567h-200.611v-12.102c0.678-0.74-1.887-15.795-6.362-30.002l-8.533-16.543h214.109c13.058-0.5 23.493-11.094 23.738-24.18v-572.533l-229.469-177.338v192.233h118.225v60.975h-173.149v-262.516h-447.767c-13.058 0.5-23.493 11.094-23.738 24.18v734.976c0.24 13.1 10.671 23.697 23.692 24.202l199.261 0.001-5.585 17.687c-0.239-1.654-4.163 12.895-5.976 28.092l-0.074 12.868h-186.182c-45.5 0-82.385-36.885-82.385-82.385v0-738.211c-0.030-0.833-0.048-1.811-0.048-2.794 0-45.096 36.439-81.682 81.48-81.919h512.023l7.447 4.655 262.516 202.938c2.098 0.777 7.012 6.466 9.698 13.277l0.077 7.668c0.293 1.399 0.461 3.007 0.461 4.655s-0.168 3.255-0.487 4.808l0.026 584.458c0.001 0.138 0.001 0.302 0.001 0.465 0 45.5-36.885 82.385-82.385 82.385 0 0-0.001 0-0.001 0zM738.211 576.931h-476.16c0 0 0 0 0 0-16.195 0-29.324-13.129-29.324-29.324s13.129-29.324 29.324-29.324c0 0 0 0 0 0h476.16c7.913 10.705-6.516 36.771 0 58.647v0zM738.211 445.207h-476.16c0 0 0 0 0 0-16.195 0-29.324-13.129-29.324-29.324s13.129-29.324 29.324-29.324c0 0 0 0 0 0h476.16c25.6 0 46.545 3.724 46.545 29.324 0.403 1.822 0.634 3.916 0.634 6.063 0 16.195-13.129 29.324-29.324 29.324-6.75 0-12.967-2.281-17.923-6.113l0.068 0.050zM450.095 757.527l-12.567-50.269c-0.786-2.524-1.239-5.426-1.239-8.434 0-5.47 1.498-10.591 4.106-14.974 2.385-5.55 9.147-11.459 17.41-13.78l7.185-0.049c13.328 0.171 24.547 9.304 27.88 21.671l12.614 54.198c51.994 5.077 93.059 47.3 96.334 99.766 0.157 2.383 0.238 4.807 0.238 7.25 0 27.117-9.952 51.91-26.404 70.924-14.739 18.802-40.51 33.543-69.772 36.14-2.27 0.147-4.46 0.215-6.666 0.215-55.962 0-101.763-43.508-105.422-98.543l-0.017-0.319c-0.149-2.125-0.234-4.604-0.234-7.103 0-27.068 9.959-51.809 26.412-70.761-2.468-0.124 12.24-14.527 30.045-23.804l0.562-0.266zM450.095 855.738c0 25.706 20.839 46.545 46.545 46.545h4.655c12.291-0.414 24.326-6.633 32.528-16.227 9.464-8.613 15.349-20.899 15.349-34.559 0-25.706-20.839-46.545-46.545-46.545-2.441 0-4.838 0.188-7.178 0.55l0.261-0.033c-24.791 1.148-44.456 21.527-44.456 46.499 0 1.656 0.086 3.291 0.255 4.903l-0.017-0.201z" />
<glyph unicode="&#xe94e;" glyph-name="ic_close" d="M1024 856.522l-103.478 103.478-408.522-408.522-408.522 408.522-103.478-103.478 408.522-408.522-408.522-408.522 103.478-103.478 408.522 408.522 408.522-408.522 103.478 103.478-408.522 408.522z" />
<glyph unicode="&#xe94f;" glyph-name="ic_file_search" d="M861.867 405.333c-8.533-4.267-17.067-4.267-25.6-8.533v-157.867c0-25.6-21.333-46.933-46.933-46.933h-652.8c-25.6 0-46.933 21.333-46.933 46.933v405.333c0 25.6 21.333 46.933 46.933 46.933h396.8c4.267 12.8 12.8 29.867 21.333 46.933h-418.133c-51.2 0-93.867-42.667-93.867-93.867v-405.333c0-51.2 42.667-93.867 93.867-93.867h247.467v-55.467h-81.067c-12.8 0-21.333-8.533-21.333-21.333s8.533-21.333 21.333-21.333h320c12.8 0 21.333 8.533 21.333 21.333s-8.533 21.333-21.333 21.333h-81.067v55.467h247.467c51.2 0 93.867 42.667 93.867 93.867v145.067l-21.333 21.333zM494.933 89.6h-64v55.467h64v-55.467zM972.8 418.133l-64 72.533 4.267 4.267c34.133 38.4 51.2 89.6 51.2 140.8-4.267 106.667-89.6 187.733-196.267 187.733-4.267 0-8.533 0-8.533 0-106.667-4.267-192-98.133-187.733-204.8s98.133-192 204.8-187.733c34.133 0 68.267 12.8 93.867 29.867l64-76.8c4.267-4.267 12.8-8.533 17.067-8.533s12.8 0 17.067 4.267c4.267 4.267 8.533 8.533 8.533 17.067 4.267 8.533 0 17.067-4.267 21.333zM917.333 635.733c0-38.4-12.8-76.8-38.4-106.667s-64-46.933-102.4-46.933c-81.067-4.267-153.6 59.733-157.867 140.8 0 38.4 12.8 76.8 38.4 106.667s64 46.933 102.4 46.933c4.267 0 4.267 0 8.533 0 81.067 0 145.067-59.733 149.333-140.8zM725.333 725.333c-38.4-17.067-64-59.733-64-102.4 0-12.8 12.8-21.333 25.6-21.333v0c12.8 0 21.333 12.8 21.333 25.6 0 25.6 12.8 46.933 34.133 55.467 4.267 4.267 8.533 8.533 12.8 12.8s0 12.8 0 17.067-17.067 17.067-29.867 12.8zM686.933 610.133v0 0 0z" />
<glyph unicode="&#xe950;" glyph-name="ic_done_all" d="M738.133 580.267l-55.467 51.2-238.933-234.667 55.467-51.2 238.933 234.667zM900.267 635.733l-401.067-388.267-157.867 149.333-55.467-51.2 213.333-204.8 456.533 439.467-55.467 55.467zM72.533 345.6l213.333-204.8 51.2 51.2-213.333 204.8-51.2-51.2z" />
<glyph unicode="&#xe951;" glyph-name="ic_print" d="M797.867 567.467h-567.467c-68.267 0-123.733-55.467-123.733-123.733v0 0-243.2h162.133v-162.133h486.4v162.133h162.133v247.467c0 68.267-55.467 119.467-119.467 119.467v0 0zM674.133 123.733h-324.267v204.8h324.267c0-4.267 0-204.8 0-204.8zM797.867 405.333c-25.6 0-42.667 17.067-42.667 42.667s17.067 42.667 42.667 42.667 42.667-17.067 42.667-42.667-21.333-42.667-42.667-42.667zM755.2 768h-486.4v-157.867h486.4v157.867z" />
<glyph unicode="&#xe952;" glyph-name="ic_delete" d="M256 128c0-46.933 38.4-85.333 85.333-85.333h341.333c46.933 0 85.333 38.4 85.333 85.333v512h-512v-512zM810.667 768h-149.333l-42.667 42.667h-213.333l-42.667-42.667h-149.333v-85.333h597.333v85.333z" />
<glyph unicode="&#xe953;" glyph-name="ic_error" d="M844.8 874.667h-661.333c-42.667 0-76.8-34.133-76.8-76.8v-682.667c0-42.667 34.133-76.8 76.8-76.8h657.067c42.667 0 76.8 34.133 76.8 76.8v682.667c4.267 38.4-25.6 72.533-64 72.533l-8.533 4.267zM661.333 110.933c0-12.8-12.8-21.333-25.6-21.333h-452.267c-12.8 0-21.333 12.8-25.6 21.333v682.667c0 12.8 12.8 21.333 25.6 21.333h448c12.8 0 21.333-12.8 25.6-21.333l4.267-682.667zM870.4 110.933c0-12.8-12.8-21.333-21.333-21.333h-136.533c0 4.267 4.267 17.067 4.267 21.333v315.733h51.2c12.8 0 25.6 8.533 25.6 25.6 0 12.8-8.533 25.6-25.6 25.6h-51.2v85.333h51.2c12.8 0 25.6 8.533 25.6 25.6 0 12.8-8.533 25.6-25.6 25.6h-51.2v183.467c0 8.533 0 17.067-4.267 21.333h136.533c12.8 0 21.333-12.8 21.333-21.333v-686.933zM465.067 307.2c0-23.564-19.103-42.667-42.667-42.667s-42.667 19.103-42.667 42.667c0 23.564 19.103 42.667 42.667 42.667s42.667-19.103 42.667-42.667zM366.933 597.333c0 21.333 12.8 42.667 34.133 42.667h25.6c21.333 0 34.133-17.067 34.133-34.133 0-4.267 0-4.267 0-8.533l-12.8-183.467c0-21.333-8.533-38.4-29.867-42.667-21.333 4.267-34.133 21.333-34.133 42.667l-17.067 183.467z" />
<glyph unicode="&#xe954;" glyph-name="ic_key" d="M733.867 853.333h-443.733c-42.667-4.267-76.8-38.4-76.8-81.067v-678.4c0-42.667 34.133-76.8 76.8-76.8h443.733c42.667 0 76.8 34.133 76.8 76.8v678.4c0 42.667-34.133 76.8-76.8 81.067zM759.467 93.867c0-12.8-12.8-25.6-25.6-25.6 0 0 0 0 0 0h-443.733c-12.8 0-25.6 12.8-25.6 25.6v0 678.4c0 12.8 12.8 25.6 25.6 25.6v0h443.733c12.8 0 25.6-12.8 25.6-25.6v0c0 0 0-678.4 0-678.4zM605.867 537.6c0 51.2-42.667 89.6-89.6 89.6s-89.6-42.667-89.6-89.6c0-38.4 25.6-76.8 64-89.6v-42.667l-34.133-34.133 34.133-34.133-34.133-34.133 34.133-34.133v-12.8c0-12.8 12.8-25.6 25.6-25.6s25.6 12.8 25.6 25.6v0 187.733c34.133 17.067 59.733 55.467 64 93.867zM512 486.4c-29.867 0-51.2 21.333-51.2 51.2s21.333 51.2 51.2 51.2c29.867 0 51.2-21.333 51.2-51.2s-21.333-51.2-51.2-51.2v0z" />
<glyph unicode="&#xe955;" glyph-name="ic_user" d="M328.533 332.8h55.467v-157.867c0-12.8 8.533-25.6 25.6-25.6v0h209.067c12.8 0 25.6 12.8 25.6 25.6v0 157.867h51.2c12.8 0 25.6 12.8 25.6 25.6v0c0 115.2-93.867 209.067-209.067 209.067s-209.067-93.867-209.067-209.067c0-12.8 12.8-25.6 25.6-25.6 0 0 0 0 0 0zM512 516.267c76.8 0 140.8-55.467 153.6-132.267h-51.2c-12.8 0-25.6-12.8-25.6-25.6v-157.867h-157.867v153.6c0 12.8-12.8 25.6-25.6 25.6h-46.933c12.8 81.067 76.8 136.533 153.6 136.533zM512 593.067c72.533 0 132.267 59.733 132.267 132.267s-59.733 132.267-132.267 128c-72.533 0-128-55.467-128-128v0c0-72.533 55.467-132.267 128-132.267zM512 802.133c42.667 0 76.8-34.133 76.8-76.8s-34.133-81.067-76.8-81.067-76.8 34.133-76.8 76.8v0c0 46.933 34.133 81.067 76.8 81.067zM768 238.933c-17.067 8.533-38.4 12.8-55.467 17.067-12.8 4.267-29.867-4.267-29.867-17.067-4.267-12.8 4.267-29.867 17.067-29.867v0c17.067-4.267 34.133-8.533 46.933-17.067 21.333-4.267 38.4-21.333 51.2-38.4 0-25.6-102.4-76.8-285.867-76.8s-285.867 51.2-285.867 76.8c8.533 21.333 29.867 34.133 51.2 38.4 17.067 8.533 34.133 12.8 46.933 17.067s21.333 17.067 17.067 29.867c-4.267 12.8-17.067 21.333-29.867 17.067-17.067-4.267-38.4-12.8-55.467-21.333-68.267-29.867-81.067-64-81.067-85.333 0-85.333 170.667-128 337.067-128s337.067 42.667 337.067 128c0 25.6-12.8 59.733-81.067 89.6z" />
</font>
</defs>
</svg>
